<?xml version="1.0" encoding="utf-8"?>
<!-- Generator: Adobe Illustrator 21.0.0, SVG Export Plug-In . SVG Version: 6.00 Build 0)  -->
<svg version="1.1" id="Layer_1" xmlns="http://www.w3.org/2000/svg" xmlns:xlink="http://www.w3.org/1999/xlink" x="0px" y="0px"
	 viewBox="0 0 612 792" style="enable-background:new 0 0 612 792;" xml:space="preserve">
<style type="text/css">
	.st0{fill-rule:evenodd;clip-rule:evenodd;}
	.st1{fill-rule:evenodd;clip-rule:evenodd;fill:#91C9ED;}
	.st2{fill:#FFFFFF;}
</style>
<g>
	<path d="M208.4,367c0.3,0,0.6,0.1,0.9,0.4c0.2,0.2,0.4,0.5,0.4,0.9c0,0.3-0.1,0.6-0.4,0.9c-0.2,0.2-0.5,0.4-0.9,0.4
		c-0.3,0-0.6-0.1-0.9-0.4c-0.2-0.2-0.4-0.5-0.4-0.9c0-0.4,0.1-0.6,0.4-0.9C207.8,367.1,208.1,367,208.4,367L208.4,367z M209.4,372.9
		v11.3c0,1.9-0.4,3.3-1.2,4.3c-0.8,0.9-1.8,1.4-3.1,1.4c-0.7,0-1.3-0.1-1.6-0.4c-0.4-0.3-0.5-0.5-0.5-0.8c0-0.3,0.1-0.5,0.3-0.7
		c0.2-0.2,0.4-0.3,0.7-0.3c0.2,0,0.4,0.1,0.6,0.2c0.1,0.1,0.4,0.3,0.8,0.6c0.4,0.4,0.7,0.5,1,0.5c0.2,0,0.4-0.1,0.6-0.2
		c0.2-0.1,0.3-0.4,0.4-0.8c0.1-0.4,0.1-1.1,0.1-2.3v-8c0-1.2,0-2-0.1-2.4c-0.1-0.3-0.1-0.5-0.3-0.6c-0.1-0.1-0.3-0.2-0.5-0.2
		c-0.2,0-0.5,0.1-0.8,0.2l-0.2-0.4l3.3-1.4H209.4L209.4,372.9z"/>
	<path d="M219.4,382.8c-1.1,0.9-1.8,1.4-2.1,1.5c-0.4,0.2-0.9,0.3-1.4,0.3c-0.8,0-1.4-0.3-1.9-0.8c-0.5-0.5-0.7-1.2-0.7-2.1
		c0-0.5,0.1-1,0.4-1.4c0.3-0.5,0.9-1.1,1.7-1.6c0.8-0.5,2.2-1.1,4-1.8v-0.4c0-1.1-0.2-1.9-0.5-2.3c-0.3-0.4-0.9-0.6-1.5-0.6
		c-0.5,0-0.9,0.1-1.2,0.4c-0.3,0.3-0.5,0.6-0.5,0.9l0,0.7c0,0.4-0.1,0.7-0.3,0.9c-0.2,0.2-0.4,0.3-0.7,0.3c-0.3,0-0.5-0.1-0.7-0.3
		c-0.2-0.2-0.3-0.5-0.3-0.9c0-0.7,0.4-1.3,1.1-1.9c0.7-0.6,1.7-0.9,3-0.9c1,0,1.8,0.2,2.4,0.5c0.5,0.3,0.8,0.7,1,1.2
		c0.1,0.3,0.2,1.1,0.2,2.1v3.8c0,1.1,0,1.7,0.1,2c0,0.2,0.1,0.4,0.2,0.5c0.1,0.1,0.2,0.1,0.3,0.1c0.1,0,0.2,0,0.3-0.1
		c0.2-0.1,0.5-0.4,1-0.9v0.7c-0.9,1.2-1.7,1.8-2.6,1.8c-0.4,0-0.7-0.1-0.9-0.4C219.6,383.9,219.4,383.4,219.4,382.8L219.4,382.8z
		 M219.4,382v-4.3c-1.2,0.5-2,0.8-2.3,1c-0.6,0.4-1.1,0.7-1.4,1.1c-0.3,0.4-0.4,0.8-0.4,1.3c0,0.6,0.2,1.1,0.5,1.5
		c0.3,0.4,0.7,0.6,1.2,0.6C217.7,383.2,218.5,382.8,219.4,382L219.4,382z"/>
	<path d="M228.1,372.9v2.5c0.9-1.7,1.9-2.5,2.8-2.5c0.4,0,0.8,0.1,1.1,0.4c0.3,0.3,0.4,0.6,0.4,0.9c0,0.3-0.1,0.6-0.3,0.8
		c-0.2,0.2-0.5,0.3-0.7,0.3c-0.3,0-0.6-0.1-0.9-0.4c-0.3-0.3-0.6-0.4-0.8-0.4c-0.1,0-0.3,0.1-0.5,0.2c-0.4,0.3-0.7,0.9-1.1,1.7v5.4
		c0,0.6,0.1,1.1,0.2,1.4c0.1,0.2,0.3,0.4,0.6,0.6c0.3,0.1,0.6,0.2,1.1,0.2v0.4h-5.6v-0.4c0.6,0,1-0.1,1.2-0.3
		c0.2-0.1,0.3-0.3,0.4-0.6c0-0.1,0.1-0.5,0.1-1.2v-4.3c0-1.3,0-2.1-0.1-2.3c0-0.2-0.1-0.4-0.3-0.5c-0.1-0.1-0.3-0.2-0.5-0.2
		c-0.2,0-0.5,0.1-0.8,0.2l-0.1-0.4l3.3-1.4H228.1L228.1,372.9z"/>
	<path d="M235.7,377.4c0,1.7,0.4,3,1.2,3.9c0.8,0.9,1.7,1.4,2.8,1.4c0.7,0,1.3-0.2,1.9-0.6c0.5-0.4,1-1.1,1.3-2.1l0.4,0.2
		c-0.2,1.1-0.7,2.1-1.5,3c-0.8,0.9-1.8,1.4-3,1.4c-1.3,0-2.4-0.5-3.4-1.6c-0.9-1-1.4-2.5-1.4-4.2c0-1.9,0.5-3.4,1.4-4.5
		c1-1.1,2.2-1.6,3.6-1.6c1.2,0,2.2,0.4,3,1.2c0.8,0.8,1.2,1.9,1.2,3.3H235.7L235.7,377.4z M235.7,376.7h5.1c0-0.7-0.1-1.2-0.3-1.5
		c-0.2-0.5-0.5-0.8-0.9-1.1c-0.4-0.3-0.8-0.4-1.2-0.4c-0.7,0-1.3,0.3-1.8,0.8C236.1,375,235.8,375.8,235.7,376.7L235.7,376.7z"/>
	<path d="M253.2,383.1c-0.5,0.6-1.1,1-1.6,1.2c-0.5,0.2-1.1,0.4-1.6,0.4c-1.2,0-2.2-0.5-3.1-1.5c-0.9-1-1.3-2.3-1.3-3.9
		c0-1.6,0.5-3.1,1.5-4.4c1-1.3,2.3-2,3.8-2c1,0,1.8,0.3,2.4,0.9v-2.1c0-1.3,0-2.1-0.1-2.4c-0.1-0.3-0.2-0.5-0.3-0.6
		c-0.1-0.1-0.3-0.2-0.5-0.2c-0.2,0-0.5,0.1-0.8,0.2l-0.2-0.4l3.3-1.4h0.5v12.9c0,1.3,0,2.1,0.1,2.4c0.1,0.3,0.2,0.5,0.3,0.6
		c0.1,0.1,0.3,0.2,0.5,0.2c0.2,0,0.5-0.1,0.9-0.2l0.1,0.4l-3.3,1.4h-0.6V383.1L253.2,383.1z M253.2,382.3v-5.8
		c0-0.5-0.2-1.1-0.4-1.5c-0.2-0.5-0.6-0.8-1-1c-0.4-0.2-0.8-0.4-1.2-0.4c-0.7,0-1.3,0.3-1.9,1c-0.7,0.9-1.1,2.1-1.1,3.7
		c0,1.6,0.4,2.9,1.1,3.8c0.7,0.9,1.5,1.3,2.3,1.3C251.9,383.4,252.6,383,253.2,382.3L253.2,382.3z"/>
	<path d="M269.1,367v14.8c0,0.7,0.1,1.2,0.2,1.4c0.1,0.2,0.3,0.4,0.5,0.5c0.2,0.1,0.6,0.2,1.2,0.2v0.4h-5.4v-0.4
		c0.5,0,0.8-0.1,1-0.2c0.2-0.1,0.3-0.3,0.4-0.5c0.1-0.2,0.2-0.7,0.2-1.4v-10.2c0-1.3,0-2-0.1-2.3c-0.1-0.3-0.1-0.5-0.3-0.6
		c-0.1-0.1-0.3-0.2-0.5-0.2c-0.2,0-0.5,0.1-0.8,0.2l-0.2-0.4l3.3-1.4H269.1L269.1,367z"/>
	<path d="M273.7,382c0.4,0,0.7,0.1,0.9,0.4c0.3,0.3,0.4,0.6,0.4,1c0,0.4-0.1,0.7-0.4,1c-0.3,0.3-0.6,0.4-0.9,0.4
		c-0.4,0-0.7-0.1-0.9-0.4c-0.3-0.3-0.4-0.6-0.4-1c0-0.4,0.1-0.7,0.4-1C273.1,382.1,273.4,382,273.7,382L273.7,382z"/>
	<path d="M290.8,372.9v3.8h-0.4c-0.3-1.2-0.7-2-1.2-2.4c-0.5-0.4-1.1-0.6-1.8-0.6c-0.6,0-1,0.1-1.4,0.5c-0.3,0.3-0.5,0.6-0.5,1
		c0,0.5,0.1,0.8,0.4,1.2c0.2,0.3,0.8,0.7,1.5,1.1l1.7,0.9c1.6,0.8,2.4,1.9,2.4,3.2c0,1-0.4,1.8-1.1,2.5c-0.8,0.6-1.6,0.9-2.5,0.9
		c-0.7,0-1.4-0.1-2.3-0.4c-0.3-0.1-0.5-0.1-0.6-0.1c-0.2,0-0.3,0.1-0.4,0.3h-0.4v-4h0.4c0.2,1.1,0.7,2,1.3,2.6
		c0.6,0.6,1.3,0.9,2.1,0.9c0.6,0,1-0.2,1.3-0.5c0.3-0.3,0.5-0.7,0.5-1.2c0-0.6-0.2-1-0.6-1.4c-0.4-0.4-1.2-0.9-2.3-1.5
		c-1.2-0.6-1.9-1.1-2.3-1.6c-0.4-0.5-0.5-1-0.5-1.8c0-0.9,0.3-1.7,0.9-2.3c0.6-0.6,1.4-0.9,2.4-0.9c0.4,0,1,0.1,1.6,0.3
		c0.4,0.1,0.7,0.2,0.8,0.2c0.1,0,0.2,0,0.3-0.1c0.1-0.1,0.2-0.2,0.2-0.4H290.8L290.8,372.9z"/>
	<path d="M297.8,367v14.8c0,0.7,0.1,1.2,0.2,1.4c0.1,0.2,0.3,0.4,0.5,0.5c0.2,0.1,0.6,0.2,1.2,0.2v0.4h-5.4v-0.4
		c0.5,0,0.8-0.1,1-0.2c0.2-0.1,0.3-0.3,0.4-0.5c0.1-0.2,0.2-0.7,0.2-1.4v-10.2c0-1.3,0-2-0.1-2.3c-0.1-0.3-0.1-0.5-0.3-0.6
		c-0.1-0.1-0.3-0.2-0.5-0.2c-0.2,0-0.5,0.1-0.8,0.2l-0.2-0.4l3.3-1.4H297.8L297.8,367z"/>
	<path d="M307,372.9c1.7,0,3,0.6,4,1.9c0.9,1.1,1.3,2.4,1.3,3.8c0,1-0.2,2-0.7,3c-0.5,1-1.1,1.8-1.9,2.3c-0.8,0.5-1.7,0.8-2.8,0.8
		c-1.7,0-3-0.7-3.9-2c-0.8-1.1-1.2-2.4-1.2-3.8c0-1,0.2-2,0.7-3.1c0.5-1,1.2-1.8,2-2.2C305.2,373.1,306.1,372.9,307,372.9L307,372.9
		z M306.6,373.7c-0.4,0-0.8,0.1-1.3,0.4c-0.4,0.3-0.8,0.7-1,1.4c-0.3,0.6-0.4,1.5-0.4,2.5c0,1.6,0.3,3,1,4.2
		c0.6,1.2,1.5,1.8,2.5,1.8c0.8,0,1.4-0.3,1.9-1c0.5-0.7,0.8-1.8,0.8-3.4c0-2-0.4-3.6-1.3-4.7C308.2,374,307.5,373.7,306.6,373.7
		L306.6,373.7z"/>
	<path d="M314.1,373.2h5.2v0.5h-0.3c-0.3,0-0.5,0.1-0.7,0.2c-0.2,0.2-0.2,0.4-0.2,0.6c0,0.3,0.1,0.6,0.3,1l2.5,6.2l2.6-6.4
		c0.2-0.5,0.3-0.8,0.3-1c0-0.1,0-0.2-0.1-0.3c-0.1-0.1-0.2-0.2-0.3-0.3c-0.1,0-0.4-0.1-0.8-0.1v-0.5h3.6v0.5c-0.4,0-0.7,0.1-0.9,0.3
		c-0.3,0.2-0.5,0.7-0.8,1.2l-3.9,9.6h-0.5l-3.9-9.4c-0.2-0.4-0.3-0.8-0.5-0.9c-0.2-0.2-0.4-0.3-0.6-0.5c-0.1-0.1-0.4-0.1-0.8-0.2
		V373.2L314.1,373.2z"/>
	<path d="M333.9,382.8c-1.1,0.9-1.8,1.4-2.1,1.5c-0.4,0.2-0.9,0.3-1.4,0.3c-0.8,0-1.4-0.3-1.9-0.8c-0.5-0.5-0.7-1.2-0.7-2.1
		c0-0.5,0.1-1,0.4-1.4c0.3-0.5,0.9-1.1,1.7-1.6c0.8-0.5,2.2-1.1,4-1.8v-0.4c0-1.1-0.2-1.9-0.5-2.3c-0.3-0.4-0.9-0.6-1.5-0.6
		c-0.5,0-0.9,0.1-1.2,0.4c-0.3,0.3-0.5,0.6-0.5,0.9l0,0.7c0,0.4-0.1,0.7-0.3,0.9c-0.2,0.2-0.4,0.3-0.7,0.3c-0.3,0-0.5-0.1-0.7-0.3
		c-0.2-0.2-0.3-0.5-0.3-0.9c0-0.7,0.4-1.3,1.1-1.9c0.7-0.6,1.7-0.9,3-0.9c1,0,1.8,0.2,2.4,0.5c0.5,0.3,0.8,0.7,1,1.2
		c0.1,0.3,0.2,1.1,0.2,2.1v3.8c0,1.1,0,1.7,0.1,2c0,0.2,0.1,0.4,0.2,0.5c0.1,0.1,0.2,0.1,0.3,0.1c0.1,0,0.2,0,0.3-0.1
		c0.2-0.1,0.5-0.4,1-0.9v0.7c-0.9,1.2-1.7,1.8-2.6,1.8c-0.4,0-0.7-0.1-0.9-0.4C334,383.9,333.9,383.4,333.9,382.8L333.9,382.8z
		 M333.9,382v-4.3c-1.2,0.5-2,0.8-2.3,1c-0.6,0.4-1.1,0.7-1.4,1.1c-0.3,0.4-0.4,0.8-0.4,1.3c0,0.6,0.2,1.1,0.5,1.5
		c0.3,0.4,0.7,0.6,1.2,0.6C332.1,383.2,332.9,382.8,333.9,382L333.9,382z"/>
	<path d="M342.5,375.2c1.3-1.6,2.5-2.4,3.7-2.4c0.6,0,1.1,0.2,1.5,0.5c0.4,0.3,0.8,0.8,1,1.5c0.2,0.5,0.3,1.2,0.3,2.2v4.8
		c0,0.7,0.1,1.2,0.2,1.4c0.1,0.2,0.2,0.4,0.4,0.5c0.2,0.1,0.6,0.2,1.1,0.2v0.4h-5.4v-0.4h0.2c0.5,0,0.9-0.1,1.1-0.2
		c0.2-0.2,0.3-0.4,0.4-0.7c0-0.1,0-0.5,0-1.1v-4.6c0-1-0.1-1.8-0.4-2.2c-0.3-0.5-0.7-0.7-1.3-0.7c-0.9,0-1.9,0.5-2.8,1.6v5.9
		c0,0.8,0,1.2,0.1,1.4c0.1,0.2,0.3,0.4,0.5,0.5c0.2,0.1,0.6,0.2,1.2,0.2v0.4h-5.4v-0.4h0.2c0.6,0,0.9-0.1,1.1-0.4
		c0.2-0.3,0.3-0.8,0.3-1.7v-4.2c0-1.3,0-2.2-0.1-2.5c-0.1-0.3-0.2-0.5-0.3-0.6c-0.1-0.1-0.3-0.2-0.5-0.2c-0.2,0-0.5,0.1-0.8,0.2
		l-0.2-0.4l3.3-1.4h0.5V375.2L342.5,375.2z"/>
	<path d="M352.9,388.5V388c0.8-0.3,1.5-0.7,1.9-1.3c0.4-0.6,0.7-1.2,0.7-1.8c0-0.2,0-0.3-0.1-0.4c-0.1-0.1-0.1-0.1-0.2-0.1
		c-0.1,0-0.3,0.1-0.6,0.2c-0.1,0.1-0.3,0.1-0.5,0.1c-0.4,0-0.7-0.1-0.9-0.4c-0.2-0.2-0.3-0.6-0.3-1c0-0.4,0.2-0.7,0.4-1
		c0.3-0.3,0.7-0.4,1.1-0.4c0.5,0,1,0.2,1.4,0.7c0.4,0.5,0.6,1.1,0.6,1.9c0,0.8-0.3,1.6-0.9,2.3C355.1,387.5,354.2,388.1,352.9,388.5
		L352.9,388.5z"/>
	<path d="M372.6,383.1c-0.5,0.6-1.1,1-1.6,1.2c-0.5,0.2-1.1,0.4-1.6,0.4c-1.2,0-2.2-0.5-3.1-1.5c-0.9-1-1.3-2.3-1.3-3.9
		c0-1.6,0.5-3.1,1.5-4.4c1-1.3,2.3-2,3.8-2c1,0,1.8,0.3,2.4,0.9v-2.1c0-1.3,0-2.1-0.1-2.4c-0.1-0.3-0.2-0.5-0.3-0.6
		c-0.1-0.1-0.3-0.2-0.5-0.2c-0.2,0-0.5,0.1-0.8,0.2l-0.2-0.4l3.3-1.4h0.5v12.9c0,1.3,0,2.1,0.1,2.4c0.1,0.3,0.2,0.5,0.3,0.6
		c0.1,0.1,0.3,0.2,0.5,0.2c0.2,0,0.5-0.1,0.9-0.2l0.1,0.4l-3.3,1.4h-0.6V383.1L372.6,383.1z M372.6,382.3v-5.8
		c0-0.5-0.2-1.1-0.4-1.5c-0.2-0.5-0.6-0.8-1-1c-0.4-0.2-0.8-0.4-1.2-0.4c-0.7,0-1.3,0.3-1.9,1c-0.7,0.9-1.1,2.1-1.1,3.7
		c0,1.6,0.4,2.9,1.1,3.8c0.7,0.9,1.5,1.3,2.3,1.3C371.2,383.4,371.9,383,372.6,382.3L372.6,382.3z"/>
	<path d="M381.1,375.2c0.8-0.8,1.3-1.3,1.4-1.4c0.4-0.3,0.7-0.5,1.2-0.7c0.4-0.2,0.8-0.3,1.2-0.3c0.7,0,1.3,0.2,1.8,0.6
		c0.5,0.4,0.8,1,1,1.8c0.8-1,1.5-1.6,2.1-1.9c0.6-0.3,1.1-0.5,1.7-0.5c0.6,0,1.1,0.2,1.6,0.5c0.4,0.3,0.8,0.8,1.1,1.5
		c0.2,0.5,0.3,1.2,0.3,2.2v4.8c0,0.7,0.1,1.2,0.2,1.4c0.1,0.2,0.2,0.3,0.4,0.5c0.2,0.1,0.6,0.2,1.1,0.2v0.4h-5.4v-0.4h0.2
		c0.5,0,0.8-0.1,1.1-0.3c0.2-0.1,0.3-0.3,0.4-0.6c0-0.1,0-0.5,0-1.2V377c0-0.9-0.1-1.6-0.3-1.9c-0.3-0.5-0.8-0.8-1.5-0.8
		c-0.4,0-0.8,0.1-1.3,0.3c-0.4,0.2-0.9,0.6-1.6,1.2l0,0.1l0,0.5v5.3c0,0.8,0,1.2,0.1,1.4c0.1,0.2,0.2,0.3,0.5,0.5
		c0.2,0.1,0.6,0.2,1.2,0.2v0.4H384v-0.4c0.6,0,1-0.1,1.3-0.2c0.2-0.1,0.4-0.4,0.5-0.7c0-0.1,0.1-0.5,0.1-1.2V377
		c0-0.9-0.1-1.6-0.4-2c-0.4-0.5-0.8-0.8-1.5-0.8c-0.4,0-0.9,0.1-1.3,0.4c-0.7,0.4-1.2,0.8-1.5,1.2v6c0,0.7,0.1,1.2,0.2,1.4
		c0.1,0.2,0.2,0.4,0.4,0.5c0.2,0.1,0.6,0.2,1.2,0.2v0.4h-5.4v-0.4c0.5,0,0.9-0.1,1.1-0.2c0.2-0.1,0.4-0.3,0.5-0.5
		c0.1-0.2,0.2-0.7,0.2-1.4v-4.3c0-1.2,0-2-0.1-2.4c-0.1-0.3-0.1-0.5-0.3-0.6c-0.1-0.1-0.3-0.2-0.5-0.2c-0.2,0-0.5,0.1-0.8,0.2
		l-0.2-0.4l3.3-1.4h0.5V375.2L381.1,375.2z"/>
	<path d="M405.5,383.1c-0.5,0.6-1.1,1-1.6,1.2c-0.5,0.2-1.1,0.4-1.6,0.4c-1.2,0-2.2-0.5-3.1-1.5c-0.9-1-1.3-2.3-1.3-3.9
		c0-1.6,0.5-3.1,1.5-4.4c1-1.3,2.3-2,3.8-2c1,0,1.8,0.3,2.4,0.9v-2.1c0-1.3,0-2.1-0.1-2.4c-0.1-0.3-0.2-0.5-0.3-0.6
		c-0.1-0.1-0.3-0.2-0.5-0.2c-0.2,0-0.5,0.1-0.8,0.2l-0.2-0.4l3.3-1.4h0.5v12.9c0,1.3,0,2.1,0.1,2.4c0.1,0.3,0.2,0.5,0.3,0.6
		c0.1,0.1,0.3,0.2,0.5,0.2c0.2,0,0.5-0.1,0.9-0.2l0.1,0.4l-3.3,1.4h-0.6V383.1L405.5,383.1z M405.5,382.3v-5.8
		c0-0.5-0.2-1.1-0.4-1.5c-0.2-0.5-0.6-0.8-1-1c-0.4-0.2-0.8-0.4-1.2-0.4c-0.7,0-1.3,0.3-1.9,1c-0.7,0.9-1.1,2.1-1.1,3.7
		c0,1.6,0.4,2.9,1.1,3.8c0.7,0.9,1.5,1.3,2.3,1.3C404.1,383.4,404.8,383,405.5,382.3L405.5,382.3z"/>
	<polygon class="st0" points="204.4,395.9 407.8,395.9 407.8,396.9 204.4,396.9 204.4,395.9 	"/>
	<path class="st1" d="M207.8,399.9h196.7c2.1,0,3.9,1.7,3.9,3.9v17.7c0,2.1-1.7,3.9-3.9,3.9H207.8c-2.1,0-3.9-1.7-3.9-3.9v-17.7
		C203.9,401.7,205.6,399.9,207.8,399.9L207.8,399.9z"/>
	<path class="st2" d="M220.5,414.1c-0.2,1-0.6,1.7-1.2,2.2c-0.6,0.5-1.2,0.8-1.9,0.8c-0.8,0-1.6-0.4-2.2-1.1
		c-0.6-0.7-0.9-1.7-0.9-2.9c0-1.2,0.3-2.1,1-2.8c0.7-0.7,1.5-1.1,2.5-1.1c0.7,0,1.3,0.2,1.8,0.6c0.5,0.4,0.7,0.8,0.7,1.2
		c0,0.2-0.1,0.4-0.2,0.5c-0.1,0.1-0.3,0.2-0.6,0.2c-0.3,0-0.6-0.1-0.7-0.3c-0.1-0.1-0.2-0.3-0.2-0.6c0-0.3-0.1-0.6-0.3-0.7
		c-0.2-0.2-0.4-0.2-0.8-0.2c-0.5,0-1,0.2-1.3,0.6c-0.4,0.5-0.7,1.2-0.7,2.1c0,0.9,0.2,1.7,0.7,2.3c0.4,0.7,1,1,1.8,1
		c0.5,0,1-0.2,1.4-0.5c0.3-0.2,0.6-0.7,0.9-1.3L220.5,414.1L220.5,414.1z"/>
	<path class="st2" d="M225.2,409.3c1.1,0,2,0.4,2.7,1.3c0.6,0.7,0.9,1.6,0.9,2.5c0,0.7-0.2,1.3-0.5,2c-0.3,0.7-0.8,1.2-1.3,1.5
		c-0.6,0.3-1.2,0.5-1.9,0.5c-1.1,0-2-0.4-2.7-1.3c-0.6-0.7-0.8-1.6-0.8-2.5c0-0.7,0.2-1.4,0.5-2c0.3-0.7,0.8-1.2,1.3-1.5
		C224,409.5,224.6,409.3,225.2,409.3L225.2,409.3z M224.9,409.9c-0.3,0-0.6,0.1-0.9,0.3c-0.3,0.2-0.5,0.5-0.7,0.9
		c-0.2,0.4-0.3,1-0.3,1.6c0,1.1,0.2,2,0.6,2.8s1,1.2,1.7,1.2c0.5,0,0.9-0.2,1.3-0.6c0.3-0.4,0.5-1.2,0.5-2.2c0-1.3-0.3-2.3-0.8-3.1
		C226,410.1,225.5,409.9,224.9,409.9L224.9,409.9z"/>
	<path class="st2" d="M234.6,409.3v2.5h-0.3c-0.2-0.8-0.5-1.3-0.8-1.6c-0.3-0.3-0.7-0.4-1.2-0.4c-0.4,0-0.7,0.1-0.9,0.3
		c-0.2,0.2-0.3,0.4-0.3,0.7c0,0.3,0.1,0.6,0.3,0.8c0.2,0.2,0.5,0.5,1,0.7l1.2,0.6c1.1,0.5,1.6,1.2,1.6,2.1c0,0.7-0.3,1.2-0.8,1.6
		c-0.5,0.4-1.1,0.6-1.7,0.6c-0.5,0-1-0.1-1.6-0.2c-0.2-0.1-0.3-0.1-0.4-0.1c-0.1,0-0.2,0.1-0.3,0.2h-0.3v-2.6h0.3
		c0.2,0.8,0.4,1.3,0.9,1.7c0.4,0.4,0.9,0.6,1.4,0.6c0.4,0,0.7-0.1,0.9-0.3c0.2-0.2,0.3-0.5,0.3-0.8c0-0.4-0.1-0.7-0.4-0.9
		c-0.3-0.3-0.8-0.6-1.6-1c-0.8-0.4-1.3-0.7-1.5-1c-0.2-0.3-0.4-0.7-0.4-1.2c0-0.6,0.2-1.1,0.6-1.5c0.4-0.4,1-0.6,1.6-0.6
		c0.3,0,0.6,0.1,1.1,0.2c0.3,0.1,0.5,0.1,0.5,0.1c0.1,0,0.2,0,0.2-0.1c0,0,0.1-0.1,0.2-0.3H234.6L234.6,409.3z"/>
	<path class="st2" d="M238.4,410.9c0.5-0.5,0.9-0.8,1-0.9c0.2-0.2,0.5-0.4,0.8-0.5c0.3-0.1,0.6-0.2,0.8-0.2c0.5,0,0.9,0.1,1.2,0.4
		c0.3,0.3,0.6,0.7,0.7,1.2c0.6-0.6,1-1.1,1.4-1.3c0.4-0.2,0.8-0.3,1.2-0.3c0.4,0,0.7,0.1,1,0.3c0.3,0.2,0.5,0.5,0.7,1
		c0.1,0.3,0.2,0.8,0.2,1.5v3.2c0,0.5,0,0.8,0.1,0.9c0.1,0.1,0.2,0.2,0.3,0.3c0.1,0.1,0.4,0.1,0.7,0.1v0.3h-3.6v-0.3h0.2
		c0.3,0,0.6-0.1,0.7-0.2c0.1-0.1,0.2-0.2,0.3-0.4c0-0.1,0-0.4,0-0.8v-3.2c0-0.6-0.1-1-0.2-1.3c-0.2-0.3-0.5-0.5-1-0.5
		c-0.3,0-0.6,0.1-0.9,0.2c-0.3,0.1-0.6,0.4-1,0.8l0,0.1l0,0.3v3.5c0,0.5,0,0.8,0.1,0.9c0.1,0.1,0.2,0.2,0.3,0.3
		c0.2,0.1,0.4,0.1,0.8,0.1v0.3h-3.7v-0.3c0.4,0,0.7,0,0.8-0.1c0.2-0.1,0.3-0.2,0.3-0.4c0-0.1,0-0.4,0-0.8v-3.2c0-0.6-0.1-1-0.3-1.3
		c-0.2-0.3-0.6-0.5-1-0.5c-0.3,0-0.6,0.1-0.9,0.2c-0.4,0.2-0.8,0.5-1,0.8v4c0,0.5,0,0.8,0.1,0.9c0.1,0.1,0.2,0.3,0.3,0.3
		c0.1,0.1,0.4,0.1,0.8,0.1v0.3H236v-0.3c0.3,0,0.6,0,0.7-0.1c0.1-0.1,0.2-0.2,0.3-0.3c0.1-0.2,0.1-0.5,0.1-0.9v-2.8
		c0-0.8,0-1.3-0.1-1.6c0-0.2-0.1-0.3-0.2-0.4c-0.1-0.1-0.2-0.1-0.3-0.1c-0.2,0-0.3,0-0.5,0.1l-0.1-0.3l2.2-0.9h0.3V410.9
		L238.4,410.9z"/>
	<path class="st2" d="M250.4,412.3c0,1.1,0.3,2,0.8,2.6c0.5,0.6,1.2,0.9,1.9,0.9c0.5,0,0.9-0.1,1.3-0.4c0.4-0.3,0.7-0.7,0.9-1.4
		l0.3,0.2c-0.1,0.7-0.4,1.4-1,2c-0.5,0.6-1.2,0.9-2,0.9c-0.9,0-1.6-0.3-2.3-1c-0.6-0.7-0.9-1.6-0.9-2.8c0-1.3,0.3-2.2,1-3
		c0.6-0.7,1.5-1.1,2.4-1.1c0.8,0,1.5,0.3,2,0.8c0.5,0.5,0.8,1.3,0.8,2.2H250.4L250.4,412.3z M250.4,411.9h3.4c0-0.5-0.1-0.8-0.2-1
		c-0.1-0.3-0.3-0.5-0.6-0.7c-0.3-0.2-0.5-0.3-0.8-0.3c-0.4,0-0.8,0.2-1.2,0.5C250.6,410.8,250.4,411.2,250.4,411.9L250.4,411.9z"/>
	<path class="st2" d="M258.6,407.1v2.4h1.7v0.6h-1.7v4.8c0,0.5,0.1,0.8,0.2,1c0.1,0.2,0.3,0.3,0.5,0.3c0.2,0,0.3-0.1,0.5-0.2
		c0.2-0.1,0.3-0.3,0.4-0.5h0.3c-0.2,0.5-0.5,0.9-0.8,1.2c-0.3,0.3-0.7,0.4-1.1,0.4c-0.2,0-0.5-0.1-0.7-0.2c-0.2-0.1-0.4-0.3-0.5-0.6
		c-0.1-0.3-0.2-0.6-0.2-1.2v-5h-1.2v-0.3c0.3-0.1,0.6-0.3,0.9-0.6c0.3-0.3,0.6-0.6,0.8-1c0.1-0.2,0.3-0.6,0.5-1.1H258.6L258.6,407.1
		z"/>
	<path class="st2" d="M262.9,405.5c0.2,0,0.4,0.1,0.6,0.2c0.2,0.2,0.2,0.4,0.2,0.6c0,0.2-0.1,0.4-0.2,0.6c-0.2,0.2-0.4,0.2-0.6,0.2
		c-0.2,0-0.4-0.1-0.6-0.2c-0.2-0.2-0.2-0.4-0.2-0.6c0-0.2,0.1-0.4,0.2-0.6C262.5,405.5,262.7,405.5,262.9,405.5L262.9,405.5z
		 M263.6,409.3v5.9c0,0.5,0,0.8,0.1,0.9c0.1,0.2,0.2,0.3,0.3,0.3c0.1,0.1,0.4,0.1,0.7,0.1v0.3h-3.6v-0.3c0.4,0,0.6,0,0.7-0.1
		c0.1-0.1,0.2-0.2,0.3-0.3c0.1-0.2,0.1-0.5,0.1-0.9v-2.9c0-0.8,0-1.3-0.1-1.6c0-0.2-0.1-0.3-0.2-0.4c-0.1-0.1-0.2-0.1-0.3-0.1
		c-0.2,0-0.3,0-0.5,0.1l-0.1-0.3l2.2-0.9H263.6L263.6,409.3z"/>
	<path class="st2" d="M271.9,414.1c-0.2,1-0.6,1.7-1.2,2.2c-0.6,0.5-1.2,0.8-1.9,0.8c-0.8,0-1.6-0.4-2.2-1.1
		c-0.6-0.7-0.9-1.7-0.9-2.9c0-1.2,0.3-2.1,1-2.8c0.7-0.7,1.5-1.1,2.5-1.1c0.7,0,1.3,0.2,1.8,0.6c0.5,0.4,0.7,0.8,0.7,1.2
		c0,0.2-0.1,0.4-0.2,0.5c-0.1,0.1-0.3,0.2-0.6,0.2c-0.3,0-0.6-0.1-0.7-0.3c-0.1-0.1-0.2-0.3-0.2-0.6c0-0.3-0.1-0.6-0.3-0.7
		c-0.2-0.2-0.4-0.2-0.8-0.2c-0.5,0-1,0.2-1.3,0.6c-0.4,0.5-0.7,1.2-0.7,2.1c0,0.9,0.2,1.7,0.6,2.3c0.4,0.7,1,1,1.8,1
		c0.5,0,1-0.2,1.4-0.5c0.3-0.2,0.6-0.7,0.9-1.3L271.9,414.1L271.9,414.1z"/>
	<path class="st2" d="M285,409.9h3.4v0.3c-0.5,0-0.8,0.1-1,0.3c-0.2,0.2-0.6,0.7-1,1.5c-0.5,0.9-1,1.7-1.6,2.4
		c0.5,0.6,0.9,0.9,1.3,1.2c0.4,0.2,0.8,0.3,1.1,0.3c0.4,0,0.7-0.1,0.9-0.3c0.3-0.2,0.4-0.5,0.5-0.9l0.3,0.2c-0.2,0.8-0.5,1.3-1,1.7
		c-0.4,0.4-1,0.5-1.5,0.5c-0.4,0-0.9-0.1-1.3-0.4c-0.5-0.2-1-0.6-1.5-1.2c-0.7,0.6-1.3,1-1.8,1.2c-0.5,0.2-1.1,0.3-1.7,0.3
		c-0.9,0-1.6-0.2-2.1-0.7c-0.5-0.5-0.8-1-0.8-1.7c0-0.7,0.2-1.3,0.7-1.9c0.5-0.6,1.3-1.3,2.6-2c-0.3-0.6-0.4-1-0.5-1.4
		c-0.1-0.4-0.1-0.7-0.1-1c0-0.9,0.3-1.6,1-2.1c0.5-0.4,1.1-0.6,1.8-0.6c0.6,0,1.2,0.2,1.6,0.6c0.4,0.4,0.6,0.8,0.6,1.4
		c0,0.6-0.2,1.1-0.6,1.5c-0.4,0.4-1.1,0.9-2.1,1.4c0.7,1.2,1.4,2.3,2.1,3.3c0.9-1.1,1.4-2.1,1.4-2.9c0-0.2-0.1-0.5-0.2-0.7
		c-0.1-0.1-0.3-0.2-0.5-0.3V409.9L285,409.9z M281.9,410.1c0.7-0.3,1.2-0.7,1.5-1.1c0.3-0.4,0.5-0.9,0.5-1.3c0-0.4-0.1-0.7-0.4-1
		c-0.2-0.3-0.5-0.4-0.9-0.4c-0.5,0-0.8,0.2-1.1,0.5c-0.2,0.3-0.4,0.6-0.4,1c0,0.3,0,0.6,0.1,0.9C281.5,409,281.7,409.5,281.9,410.1
		L281.9,410.1z M283.2,415.1c-0.7-1-1.2-1.7-1.5-2.1c-0.3-0.4-0.6-1-0.9-1.7c-0.6,0.4-1.1,0.8-1.5,1.2c-0.3,0.4-0.5,0.9-0.5,1.5
		c0,0.6,0.2,1.1,0.6,1.5c0.4,0.4,0.9,0.7,1.5,0.7c0.3,0,0.7-0.1,1-0.2C282.2,415.9,282.6,415.6,283.2,415.1L283.2,415.1z"/>
	<path class="st2" d="M297,410.1v4.9c0,0.7,0.1,1.1,0.2,1.3c0.2,0.2,0.5,0.4,0.8,0.4h0.7v0.3h-4.4v-0.3h0.3c0.2,0,0.4-0.1,0.6-0.2
		c0.2-0.1,0.3-0.3,0.4-0.4c0.1-0.2,0.1-0.5,0.1-1.1v-4.9h-1.4v-0.6h1.4v-0.5c0-0.7,0.1-1.4,0.4-1.9c0.2-0.5,0.6-0.9,1.1-1.2
		c0.5-0.3,1-0.5,1.6-0.5c0.6,0,1.1,0.2,1.6,0.5c0.3,0.2,0.5,0.5,0.5,0.8c0,0.2-0.1,0.3-0.2,0.5c-0.1,0.1-0.3,0.2-0.5,0.2
		c-0.1,0-0.3,0-0.4-0.1c-0.1-0.1-0.3-0.3-0.5-0.6c-0.2-0.3-0.4-0.5-0.5-0.6c-0.2-0.1-0.4-0.2-0.6-0.2c-0.2,0-0.5,0.1-0.6,0.2
		c-0.2,0.1-0.3,0.3-0.4,0.6c-0.1,0.3-0.1,1-0.1,2.1v0.5h1.9v0.6H297L297,410.1z"/>
	<path class="st2" d="M303.8,415.9c-0.8,0.6-1.2,0.9-1.4,1c-0.3,0.1-0.6,0.2-0.9,0.2c-0.5,0-0.9-0.2-1.3-0.5
		c-0.3-0.3-0.5-0.8-0.5-1.4c0-0.4,0.1-0.7,0.2-0.9c0.2-0.4,0.6-0.7,1.1-1c0.5-0.3,1.5-0.7,2.7-1.2v-0.3c0-0.7-0.1-1.2-0.3-1.5
		c-0.2-0.3-0.6-0.4-1-0.4c-0.3,0-0.6,0.1-0.8,0.3c-0.2,0.2-0.3,0.4-0.3,0.6l0,0.5c0,0.2-0.1,0.4-0.2,0.6c-0.1,0.1-0.3,0.2-0.5,0.2
		c-0.2,0-0.4-0.1-0.5-0.2c-0.1-0.1-0.2-0.3-0.2-0.6c0-0.5,0.2-0.9,0.7-1.3c0.5-0.4,1.1-0.6,2-0.6c0.7,0,1.2,0.1,1.6,0.3
		c0.3,0.2,0.6,0.4,0.7,0.8c0.1,0.2,0.1,0.7,0.1,1.4v2.5c0,0.7,0,1.1,0,1.3c0,0.2,0.1,0.3,0.1,0.3c0.1,0.1,0.1,0.1,0.2,0.1
		c0.1,0,0.2,0,0.2-0.1c0.1-0.1,0.3-0.3,0.7-0.6v0.5c-0.6,0.8-1.2,1.2-1.7,1.2c-0.3,0-0.5-0.1-0.6-0.3
		C303.8,416.6,303.8,416.3,303.8,415.9L303.8,415.9z M303.8,415.3v-2.8c-0.8,0.3-1.3,0.6-1.6,0.7c-0.4,0.2-0.7,0.5-0.9,0.7
		c-0.2,0.3-0.3,0.5-0.3,0.8c0,0.4,0.1,0.7,0.3,1c0.2,0.3,0.5,0.4,0.8,0.4C302.6,416.2,303.1,415.9,303.8,415.3L303.8,415.3z"/>
	<path class="st2" d="M309.1,410.9c0.5-0.5,0.9-0.8,1-0.9c0.2-0.2,0.5-0.4,0.8-0.5c0.3-0.1,0.6-0.2,0.8-0.2c0.5,0,0.9,0.1,1.2,0.4
		c0.3,0.3,0.6,0.7,0.7,1.2c0.6-0.6,1-1.1,1.4-1.3c0.4-0.2,0.8-0.3,1.2-0.3c0.4,0,0.7,0.1,1,0.3c0.3,0.2,0.5,0.5,0.7,1
		c0.1,0.3,0.2,0.8,0.2,1.5v3.2c0,0.5,0,0.8,0.1,0.9c0.1,0.1,0.2,0.2,0.3,0.3c0.1,0.1,0.4,0.1,0.7,0.1v0.3h-3.6v-0.3h0.2
		c0.3,0,0.6-0.1,0.7-0.2c0.1-0.1,0.2-0.2,0.3-0.4c0-0.1,0-0.4,0-0.8v-3.2c0-0.6-0.1-1-0.2-1.3c-0.2-0.3-0.5-0.5-1-0.5
		c-0.3,0-0.6,0.1-0.9,0.2c-0.3,0.1-0.6,0.4-1,0.8l0,0.1l0,0.3v3.5c0,0.5,0,0.8,0.1,0.9c0.1,0.1,0.2,0.2,0.3,0.3
		c0.2,0.1,0.4,0.1,0.8,0.1v0.3h-3.7v-0.3c0.4,0,0.7,0,0.8-0.1c0.2-0.1,0.3-0.2,0.3-0.4c0-0.1,0-0.4,0-0.8v-3.2c0-0.6-0.1-1-0.3-1.3
		c-0.2-0.3-0.6-0.5-1-0.5c-0.3,0-0.6,0.1-0.9,0.2c-0.4,0.2-0.8,0.5-1,0.8v4c0,0.5,0,0.8,0.1,0.9c0.1,0.1,0.2,0.3,0.3,0.3
		c0.1,0.1,0.4,0.1,0.8,0.1v0.3h-3.7v-0.3c0.3,0,0.6,0,0.7-0.1c0.1-0.1,0.2-0.2,0.3-0.3c0.1-0.2,0.1-0.5,0.1-0.9v-2.8
		c0-0.8,0-1.3-0.1-1.6c0-0.2-0.1-0.3-0.2-0.4c-0.1-0.1-0.2-0.1-0.3-0.1c-0.2,0-0.3,0-0.5,0.1l-0.1-0.3l2.2-0.9h0.3V410.9
		L309.1,410.9z"/>
	<path class="st2" d="M321.6,405.5c0.2,0,0.4,0.1,0.6,0.2c0.2,0.2,0.2,0.4,0.2,0.6c0,0.2-0.1,0.4-0.2,0.6c-0.2,0.2-0.4,0.2-0.6,0.2
		c-0.2,0-0.4-0.1-0.6-0.2c-0.2-0.2-0.2-0.4-0.2-0.6c0-0.2,0.1-0.4,0.2-0.6C321.2,405.5,321.4,405.5,321.6,405.5L321.6,405.5z
		 M322.3,409.3v5.9c0,0.5,0,0.8,0.1,0.9c0.1,0.2,0.2,0.3,0.3,0.3c0.1,0.1,0.4,0.1,0.7,0.1v0.3h-3.6v-0.3c0.4,0,0.6,0,0.7-0.1
		c0.1-0.1,0.2-0.2,0.3-0.3c0.1-0.2,0.1-0.5,0.1-0.9v-2.9c0-0.8,0-1.3-0.1-1.6c0-0.2-0.1-0.3-0.2-0.4c-0.1-0.1-0.2-0.1-0.3-0.1
		c-0.2,0-0.3,0-0.5,0.1l-0.1-0.3l2.2-0.9H322.3L322.3,409.3z"/>
	<path class="st2" d="M326.9,405.5v9.8c0,0.5,0,0.8,0.1,0.9c0.1,0.1,0.2,0.3,0.3,0.3c0.1,0.1,0.4,0.1,0.8,0.1v0.3h-3.6v-0.3
		c0.3,0,0.6,0,0.7-0.1c0.1-0.1,0.2-0.2,0.3-0.3c0.1-0.2,0.1-0.5,0.1-0.9v-6.7c0-0.8,0-1.3-0.1-1.5c0-0.2-0.1-0.3-0.2-0.4
		c-0.1-0.1-0.2-0.1-0.3-0.1c-0.1,0-0.3,0-0.5,0.1l-0.1-0.3l2.2-0.9H326.9L326.9,405.5z"/>
	<path class="st2" d="M328.5,409.5h3.4v0.3h-0.2c-0.2,0-0.4,0.1-0.5,0.2c-0.1,0.1-0.2,0.2-0.2,0.4c0,0.2,0.1,0.5,0.3,0.9l1.8,3.7
		l1.7-4.1c0.1-0.2,0.1-0.4,0.1-0.7c0-0.1,0-0.2-0.1-0.2c0-0.1-0.1-0.1-0.2-0.1c-0.1,0-0.3-0.1-0.5-0.1v-0.3h2.4v0.3
		c-0.2,0-0.4,0.1-0.5,0.1c-0.1,0.1-0.2,0.2-0.4,0.4c0,0.1-0.1,0.3-0.3,0.6l-3,7.4c-0.3,0.7-0.7,1.3-1.1,1.6
		c-0.5,0.4-0.9,0.5-1.4,0.5c-0.3,0-0.6-0.1-0.8-0.3c-0.2-0.2-0.3-0.4-0.3-0.6c0-0.2,0.1-0.4,0.2-0.5c0.1-0.1,0.4-0.2,0.6-0.2
		c0.2,0,0.4,0.1,0.7,0.2c0.2,0.1,0.3,0.1,0.4,0.1c0.2,0,0.3-0.1,0.5-0.3c0.2-0.2,0.4-0.5,0.6-1l0.5-1.3l-2.7-5.6
		c-0.1-0.2-0.2-0.4-0.4-0.6c-0.1-0.2-0.2-0.3-0.3-0.4c-0.1-0.1-0.3-0.2-0.6-0.2V409.5L328.5,409.5z"/>
	<path class="st2" d="M346.6,416.1c-0.4,0.4-0.7,0.6-1.1,0.8c-0.3,0.2-0.7,0.2-1.1,0.2c-0.8,0-1.5-0.3-2.1-1
		c-0.6-0.7-0.9-1.5-0.9-2.6c0-1.1,0.3-2,1-2.9c0.7-0.9,1.5-1.3,2.6-1.3c0.6,0,1.2,0.2,1.6,0.6v-1.4c0-0.8,0-1.4-0.1-1.6
		c0-0.2-0.1-0.3-0.2-0.4c-0.1-0.1-0.2-0.1-0.3-0.1c-0.1,0-0.3,0-0.6,0.1l-0.1-0.3l2.2-0.9h0.4v8.5c0,0.9,0,1.4,0.1,1.6
		c0,0.2,0.1,0.3,0.2,0.4c0.1,0.1,0.2,0.1,0.3,0.1c0.1,0,0.3,0,0.6-0.1l0.1,0.3l-2.2,0.9h-0.4V416.1L346.6,416.1z M346.6,415.5v-3.8
		c0-0.4-0.1-0.7-0.3-1c-0.2-0.3-0.4-0.5-0.6-0.7c-0.3-0.2-0.5-0.2-0.8-0.2c-0.5,0-0.9,0.2-1.3,0.6c-0.5,0.6-0.7,1.4-0.7,2.5
		c0,1.1,0.2,1.9,0.7,2.5c0.5,0.6,1,0.9,1.6,0.9C345.6,416.3,346.1,416,346.6,415.5L346.6,415.5z"/>
	<path class="st2" d="M350.8,412.3c0,1.1,0.3,2,0.8,2.6c0.5,0.6,1.2,0.9,1.9,0.9c0.5,0,0.9-0.1,1.3-0.4c0.4-0.3,0.7-0.7,0.9-1.4
		l0.3,0.2c-0.1,0.7-0.4,1.4-1,2c-0.5,0.6-1.2,0.9-2,0.9c-0.9,0-1.6-0.3-2.3-1c-0.6-0.7-0.9-1.6-0.9-2.8c0-1.3,0.3-2.2,1-3
		c0.6-0.7,1.5-1.1,2.4-1.1c0.8,0,1.5,0.3,2,0.8c0.5,0.5,0.8,1.3,0.8,2.2H350.8L350.8,412.3z M350.8,411.9h3.4c0-0.5-0.1-0.8-0.2-1
		c-0.1-0.3-0.3-0.5-0.6-0.7c-0.3-0.2-0.5-0.3-0.8-0.3c-0.4,0-0.8,0.2-1.2,0.5C351.1,410.8,350.9,411.2,350.8,411.9L350.8,411.9z"/>
	<path class="st2" d="M359.1,410.9c0.9-1,1.7-1.6,2.5-1.6c0.4,0,0.8,0.1,1,0.3c0.3,0.2,0.5,0.5,0.7,1c0.1,0.3,0.2,0.8,0.2,1.5v3.2
		c0,0.5,0,0.8,0.1,0.9c0.1,0.1,0.2,0.2,0.3,0.3c0.1,0.1,0.4,0.1,0.7,0.1v0.3h-3.7v-0.3h0.2c0.3,0,0.6-0.1,0.7-0.2
		c0.1-0.1,0.2-0.3,0.3-0.5c0-0.1,0-0.3,0-0.8v-3c0-0.7-0.1-1.2-0.3-1.5c-0.2-0.3-0.5-0.5-0.9-0.5c-0.6,0-1.3,0.3-1.9,1v3.9
		c0,0.5,0,0.8,0.1,0.9c0.1,0.2,0.2,0.3,0.3,0.3c0.1,0.1,0.4,0.1,0.8,0.1v0.3h-3.7v-0.3h0.2c0.4,0,0.6-0.1,0.8-0.3
		c0.1-0.2,0.2-0.6,0.2-1.1v-2.7c0-0.9,0-1.4-0.1-1.6c0-0.2-0.1-0.3-0.2-0.4c-0.1-0.1-0.2-0.1-0.3-0.1c-0.1,0-0.3,0-0.5,0.1l-0.1-0.3
		l2.2-0.9h0.3V410.9L359.1,410.9z"/>
	<path class="st2" d="M367.3,407.1v2.4h1.7v0.6h-1.7v4.8c0,0.5,0.1,0.8,0.2,1c0.1,0.2,0.3,0.3,0.5,0.3c0.2,0,0.3-0.1,0.5-0.2
		c0.2-0.1,0.3-0.3,0.4-0.5h0.3c-0.2,0.5-0.5,0.9-0.8,1.2c-0.3,0.3-0.7,0.4-1.1,0.4c-0.2,0-0.5-0.1-0.7-0.2c-0.2-0.1-0.4-0.3-0.5-0.6
		c-0.1-0.3-0.2-0.6-0.2-1.2v-5h-1.2v-0.3c0.3-0.1,0.6-0.3,0.9-0.6c0.3-0.3,0.6-0.6,0.8-1c0.1-0.2,0.3-0.6,0.5-1.1H367.3L367.3,407.1
		z"/>
	<path class="st2" d="M371.7,405.5c0.2,0,0.4,0.1,0.6,0.2c0.2,0.2,0.2,0.4,0.2,0.6c0,0.2-0.1,0.4-0.2,0.6c-0.2,0.2-0.4,0.2-0.6,0.2
		s-0.4-0.1-0.6-0.2c-0.2-0.2-0.2-0.4-0.2-0.6c0-0.2,0.1-0.4,0.2-0.6C371.2,405.5,371.4,405.5,371.7,405.5L371.7,405.5z M372.3,409.3
		v5.9c0,0.5,0,0.8,0.1,0.9c0.1,0.2,0.2,0.3,0.3,0.3c0.1,0.1,0.4,0.1,0.7,0.1v0.3h-3.6v-0.3c0.4,0,0.6,0,0.7-0.1
		c0.1-0.1,0.2-0.2,0.3-0.3c0.1-0.2,0.1-0.5,0.1-0.9v-2.9c0-0.8,0-1.3-0.1-1.6c0-0.2-0.1-0.3-0.2-0.4c-0.1-0.1-0.2-0.1-0.3-0.1
		c-0.2,0-0.3,0-0.5,0.1l-0.1-0.3l2.2-0.9H372.3L372.3,409.3z"/>
	<path class="st2" d="M379.1,409.3v2.5h-0.3c-0.2-0.8-0.5-1.3-0.8-1.6c-0.3-0.3-0.7-0.4-1.2-0.4c-0.4,0-0.7,0.1-0.9,0.3
		c-0.2,0.2-0.3,0.4-0.3,0.7c0,0.3,0.1,0.6,0.3,0.8c0.2,0.2,0.5,0.5,1,0.7l1.2,0.6c1.1,0.5,1.6,1.2,1.6,2.1c0,0.7-0.3,1.2-0.8,1.6
		c-0.5,0.4-1.1,0.6-1.7,0.6c-0.5,0-1-0.1-1.6-0.2c-0.2-0.1-0.3-0.1-0.4-0.1c-0.1,0-0.2,0.1-0.3,0.2h-0.3v-2.6h0.3
		c0.2,0.8,0.4,1.3,0.9,1.7c0.4,0.4,0.9,0.6,1.4,0.6c0.4,0,0.7-0.1,0.9-0.3c0.2-0.2,0.3-0.5,0.3-0.8c0-0.4-0.1-0.7-0.4-0.9
		c-0.3-0.3-0.8-0.6-1.6-1c-0.8-0.4-1.3-0.7-1.5-1c-0.2-0.3-0.4-0.7-0.4-1.2c0-0.6,0.2-1.1,0.6-1.5c0.4-0.4,1-0.6,1.6-0.6
		c0.3,0,0.6,0.1,1.1,0.2c0.3,0.1,0.5,0.1,0.5,0.1c0.1,0,0.2,0,0.2-0.1c0,0,0.1-0.1,0.2-0.3H379.1L379.1,409.3z"/>
	<path class="st2" d="M382.9,407.1v2.4h1.7v0.6h-1.7v4.8c0,0.5,0.1,0.8,0.2,1c0.1,0.2,0.3,0.3,0.5,0.3c0.2,0,0.3-0.1,0.5-0.2
		c0.2-0.1,0.3-0.3,0.4-0.5h0.3c-0.2,0.5-0.5,0.9-0.8,1.2c-0.3,0.3-0.7,0.4-1.1,0.4c-0.2,0-0.5-0.1-0.7-0.2c-0.2-0.1-0.4-0.3-0.5-0.6
		c-0.1-0.3-0.2-0.6-0.2-1.2v-5h-1.2v-0.3c0.3-0.1,0.6-0.3,0.9-0.6c0.3-0.3,0.6-0.6,0.8-1c0.1-0.2,0.3-0.6,0.5-1.1H382.9L382.9,407.1
		z"/>
	<path class="st2" d="M387.6,409.3v1.7c0.6-1.1,1.3-1.7,1.9-1.7c0.3,0,0.5,0.1,0.7,0.3c0.2,0.2,0.3,0.4,0.3,0.6
		c0,0.2-0.1,0.4-0.2,0.5c-0.1,0.1-0.3,0.2-0.5,0.2c-0.2,0-0.4-0.1-0.6-0.3c-0.2-0.2-0.4-0.3-0.5-0.3c-0.1,0-0.2,0.1-0.3,0.2
		c-0.2,0.2-0.5,0.6-0.7,1.1v3.5c0,0.4,0,0.7,0.2,0.9c0.1,0.1,0.2,0.3,0.4,0.4c0.2,0.1,0.4,0.1,0.8,0.1v0.3h-3.8v-0.3
		c0.4,0,0.7-0.1,0.8-0.2c0.1-0.1,0.2-0.2,0.3-0.4c0-0.1,0-0.4,0-0.8v-2.9c0-0.9,0-1.4-0.1-1.5c0-0.2-0.1-0.3-0.2-0.4
		c-0.1-0.1-0.2-0.1-0.4-0.1c-0.2,0-0.4,0-0.6,0.1l-0.1-0.3l2.2-0.9H387.6L387.6,409.3z"/>
	<path class="st2" d="M390.5,409.5h3.4v0.3h-0.2c-0.2,0-0.4,0.1-0.5,0.2c-0.1,0.1-0.2,0.2-0.2,0.4c0,0.2,0.1,0.5,0.3,0.9l1.8,3.7
		l1.7-4.1c0.1-0.2,0.1-0.4,0.1-0.7c0-0.1,0-0.2-0.1-0.2c0-0.1-0.1-0.1-0.2-0.1c-0.1,0-0.3-0.1-0.5-0.1v-0.3h2.4v0.3
		c-0.2,0-0.4,0.1-0.5,0.1c-0.1,0.1-0.2,0.2-0.4,0.4c0,0.1-0.1,0.3-0.3,0.6l-3,7.4c-0.3,0.7-0.7,1.3-1.1,1.6
		c-0.5,0.4-0.9,0.5-1.4,0.5c-0.3,0-0.6-0.1-0.8-0.3c-0.2-0.2-0.3-0.4-0.3-0.6c0-0.2,0.1-0.4,0.2-0.5c0.1-0.1,0.4-0.2,0.6-0.2
		c0.2,0,0.4,0.1,0.7,0.2c0.2,0.1,0.3,0.1,0.4,0.1c0.2,0,0.3-0.1,0.5-0.3c0.2-0.2,0.4-0.5,0.6-1l0.5-1.3l-2.7-5.6
		c-0.1-0.2-0.2-0.4-0.4-0.6c-0.1-0.2-0.2-0.3-0.3-0.4c-0.1-0.1-0.3-0.2-0.6-0.2V409.5L390.5,409.5z"/>
</g>
</svg>
