<?xml version="1.0" encoding="UTF-8" standalone="no"?>
<svg width="244px" height="70px" viewBox="0 0 244 70" version="1.1" xmlns="http://www.w3.org/2000/svg" xmlns:xlink="http://www.w3.org/1999/xlink">
    <!-- Generator: Sketch 41.1 (35376) - http://www.bohemiancoding.com/sketch -->
    <title>logo</title>
    <desc>Created with Sketch.</desc>
    <defs></defs>
    <g id="Page-1" stroke="none" stroke-width="1" fill="none" fill-rule="evenodd">
        <g id="Slovan-Website" transform="translate(-27.000000, -17.000000)">
            <g id="Header" transform="translate(-205.000000, 0.000000)">
                <g id="logo" transform="translate(232.000000, 17.000000)">
                    <g id="Layer_1">
                        <g id="Group">
                            <path d="M6.36521739,0.327235772 C6.71884058,0.327235772 7.07246377,0.445325203 7.42608696,0.799593496 C7.66183575,1.03577236 7.89758454,1.39004065 7.89758454,1.86239837 C7.89758454,2.21666667 7.77971014,2.57093496 7.42608696,2.92520325 C7.19033816,3.16138211 6.83671498,3.39756098 6.36521739,3.39756098 C6.0115942,3.39756098 5.65797101,3.27947154 5.30434783,2.92520325 C5.06859903,2.68902439 4.83285024,2.3347561 4.83285024,1.86239837 C4.83285024,1.39004065 4.95072464,1.15386179 5.30434783,0.799593496 C5.65797101,0.445325203 6.0115942,0.327235772 6.36521739,0.327235772 L6.36521739,0.327235772 L6.36521739,0.327235772 Z M7.54396135,7.2945122 L7.54396135,20.6386179 C7.54396135,22.8823171 7.07246377,24.5355691 6.1294686,25.7164634 C5.18647343,26.7792683 4.00772947,27.3697154 2.47536232,27.3697154 C1.65024155,27.3697154 0.942995169,27.251626 0.589371981,26.8973577 C0.117874396,26.5430894 5.68434189e-14,26.3069106 5.68434189e-14,25.9526423 C5.68434189e-14,25.598374 0.117874396,25.3621951 0.353623188,25.1260163 C0.589371981,24.8898374 0.825120773,24.771748 1.17874396,24.771748 C1.41449275,24.771748 1.65024155,24.8898374 1.88599034,25.0079268 C2.00386473,25.1260163 2.35748792,25.3621951 2.82898551,25.7164634 C3.30048309,26.1888211 3.65410628,26.3069106 4.00772947,26.3069106 C4.24347826,26.3069106 4.47922705,26.1888211 4.71497585,26.0707317 C4.95072464,25.9526423 5.06859903,25.598374 5.18647343,25.1260163 C5.30434783,24.6536585 5.30434783,23.8270325 5.30434783,22.4099593 L5.30434783,12.9628049 C5.30434783,11.5457317 5.30434783,10.6010163 5.18647343,10.1286585 C5.06859903,9.77439024 5.06859903,9.53821138 4.83285024,9.42012195 C4.71497585,9.30203252 4.47922705,9.18394309 4.24347826,9.18394309 C4.00772947,9.18394309 3.65410628,9.30203252 3.30048309,9.42012195 L3.0647343,8.94776423 L6.95458937,7.2945122 L7.54396135,7.2945122 L7.54396135,7.2945122 L7.54396135,7.2945122 Z" id="Shape" fill="#000000"></path>
                            <path d="M19.331401,18.9853659 C18.0347826,20.0481707 17.2096618,20.6386179 16.8560386,20.7567073 C16.3845411,20.9928862 15.7951691,21.1109756 15.2057971,21.1109756 C14.2628019,21.1109756 13.5555556,20.7567073 12.9661836,20.1662602 C12.3768116,19.575813 12.1410628,18.749187 12.1410628,17.6863821 C12.1410628,17.095935 12.2589372,16.5054878 12.6125604,16.0331301 C12.9661836,15.4426829 13.67343,14.7341463 14.6164251,14.1436992 C15.5594203,13.553252 17.2096618,12.8447154 19.331401,12.0180894 L19.331401,11.5457317 C19.331401,10.246748 19.0956522,9.30203252 18.742029,8.8296748 C18.3884058,8.35731707 17.6811594,8.12113821 16.973913,8.12113821 C16.3845411,8.12113821 15.9130435,8.23922764 15.5594203,8.59349593 C15.2057971,8.94776423 14.9700483,9.30203252 14.9700483,9.65630081 L14.9700483,10.4829268 C14.9700483,10.9552846 14.8521739,11.3095528 14.6164251,11.5457317 C14.3806763,11.7819106 14.1449275,11.9 13.7913043,11.9 C13.4376812,11.9 13.2019324,11.7819106 12.9661836,11.5457317 C12.7304348,11.3095528 12.6125604,10.9552846 12.6125604,10.4829268 C12.6125604,9.65630081 13.084058,8.94776423 13.9091787,8.23922764 C14.7342995,7.53069106 15.9130435,7.17642276 17.4454106,7.17642276 C18.6241546,7.17642276 19.5671498,7.41260163 20.2743961,7.76686992 C20.8637681,8.12113821 21.2173913,8.59349593 21.4531401,9.18394309 C21.5710145,9.53821138 21.6888889,10.4829268 21.6888889,11.6638211 L21.6888889,16.1512195 C21.6888889,17.4502033 21.6888889,18.1587398 21.8067633,18.5130081 C21.8067633,18.749187 21.9246377,18.9853659 22.0425121,19.1034553 C22.1603865,19.2215447 22.2782609,19.2215447 22.3961353,19.2215447 C22.5140097,19.2215447 22.6318841,19.2215447 22.7497585,19.1034553 C22.9855072,18.9853659 23.3391304,18.6310976 23.9285024,18.0406504 L23.9285024,18.8672764 C22.8676329,20.2843496 21.9246377,20.9928862 20.8637681,20.9928862 C20.3922705,20.9928862 20.0386473,20.8747967 19.8028986,20.5205285 C19.5671498,20.2843496 19.331401,19.6939024 19.331401,18.9853659 L19.331401,18.9853659 L19.331401,18.9853659 Z M19.331401,18.0406504 L19.331401,12.9628049 C17.9169082,13.553252 16.973913,13.9075203 16.6202899,14.1436992 C15.9130435,14.6160569 15.3236715,14.9703252 14.9700483,15.4426829 C14.6164251,15.9150407 14.4985507,16.3873984 14.4985507,16.9778455 C14.4985507,17.6863821 14.7342995,18.2768293 15.0879227,18.749187 C15.4415459,19.2215447 15.9130435,19.4577236 16.5024155,19.4577236 C17.3275362,19.4577236 18.2705314,18.9853659 19.331401,18.0406504 L19.331401,18.0406504 L19.331401,18.0406504 Z" id="Shape" fill="#000000"></path>
                            <path d="M29.5864734,7.2945122 L29.5864734,10.246748 C30.647343,8.23922764 31.826087,7.2945122 32.8869565,7.2945122 C33.3584541,7.2945122 33.8299517,7.41260163 34.1835749,7.76686992 C34.5371981,8.12113821 34.6550725,8.4754065 34.6550725,8.8296748 C34.6550725,9.18394309 34.5371981,9.53821138 34.3014493,9.77439024 C34.0657005,10.0105691 33.7120773,10.1286585 33.4763285,10.1286585 C33.1227053,10.1286585 32.7690821,10.0105691 32.4154589,9.65630081 C32.0618357,9.30203252 31.7082126,9.18394309 31.4724638,9.18394309 C31.3545894,9.18394309 31.1188406,9.30203252 30.8830918,9.42012195 C30.4115942,9.77439024 30.057971,10.4829268 29.5864734,11.4276423 L29.5864734,17.8044715 C29.5864734,18.5130081 29.7043478,19.1034553 29.8222222,19.4577236 C29.9400966,19.6939024 30.1758454,19.9300813 30.5294686,20.1662602 C30.8830918,20.2843496 31.236715,20.402439 31.826087,20.402439 L31.826087,20.8747967 L25.2251208,20.8747967 L25.2251208,20.402439 C25.9323671,20.402439 26.4038647,20.2843496 26.6396135,20.0481707 C26.8753623,19.9300813 26.9932367,19.6939024 27.1111111,19.3396341 C27.1111111,19.2215447 27.2289855,18.749187 27.2289855,17.922561 L27.2289855,12.8447154 C27.2289855,11.3095528 27.2289855,10.3648374 27.1111111,10.1286585 C27.1111111,9.89247967 26.9932367,9.65630081 26.7574879,9.53821138 C26.6396135,9.42012195 26.4038647,9.30203252 26.1681159,9.30203252 C25.9323671,9.30203252 25.578744,9.42012195 25.2251208,9.53821138 L25.1072464,9.06585366 L28.9971014,7.41260163 L29.5864734,7.41260163 L29.5864734,7.2945122 L29.5864734,7.2945122 Z" id="Shape" fill="#000000"></path>
                            <path d="M38.5449275,12.6085366 C38.5449275,14.6160569 39.0164251,16.1512195 39.9594203,17.2140244 C40.9024155,18.2768293 41.963285,18.8672764 43.2599034,18.8672764 C44.0850242,18.8672764 44.7922705,18.6310976 45.4995169,18.1587398 C46.0888889,17.6863821 46.6782609,16.8597561 47.0318841,15.6788618 L47.5033816,15.9150407 C47.2676329,17.2140244 46.6782609,18.3949187 45.7352657,19.4577236 C44.7922705,20.5205285 43.6135266,21.1109756 42.1990338,21.1109756 C40.6666667,21.1109756 39.3700483,20.5205285 38.1913043,19.2215447 C37.1304348,18.0406504 36.5410628,16.2693089 36.5410628,14.2617886 C36.5410628,12.0180894 37.1304348,10.246748 38.1913043,8.94776423 C39.3700483,7.64878049 40.7845411,7.05833333 42.4347826,7.05833333 C43.8492754,7.05833333 45.0280193,7.53069106 45.9710145,8.4754065 C46.9140097,9.42012195 47.3855072,10.7191057 47.3855072,12.3723577 L38.5449275,12.3723577 L38.5449275,12.6085366 L38.5449275,12.6085366 Z M38.5449275,11.7819106 L44.5565217,11.7819106 C44.5565217,10.9552846 44.4386473,10.3648374 44.2028986,10.0105691 C43.9671498,9.42012195 43.6135266,9.06585366 43.142029,8.71158537 C42.6705314,8.35731707 42.1990338,8.23922764 41.7275362,8.23922764 C40.9024155,8.23922764 40.1951691,8.59349593 39.6057971,9.18394309 C39.0164251,9.77439024 38.6628019,10.7191057 38.5449275,11.7819106 L38.5449275,11.7819106 L38.5449275,11.7819106 Z" id="Shape" fill="#000000"></path>
                            <path d="M59.1729469,19.3396341 C58.5835749,20.0481707 57.8763285,20.5205285 57.2869565,20.7567073 C56.6975845,20.9928862 55.9903382,21.229065 55.4009662,21.229065 C53.9864734,21.229065 52.8077295,20.6386179 51.7468599,19.4577236 C50.6859903,18.2768293 50.2144928,16.7416667 50.2144928,14.8522358 C50.2144928,12.9628049 50.8038647,11.1914634 51.9826087,9.65630081 C53.1613527,8.12113821 54.6937198,7.2945122 56.4618357,7.2945122 C57.6405797,7.2945122 58.5835749,7.64878049 59.2908213,8.35731707 L59.2908213,5.87743902 C59.2908213,4.34227642 59.2908213,3.39756098 59.1729469,3.04329268 C59.0550725,2.68902439 58.9371981,2.45284553 58.8193237,2.3347561 C58.7014493,2.21666667 58.4657005,2.09857724 58.2299517,2.09857724 C57.9942029,2.09857724 57.6405797,2.21666667 57.2869565,2.3347561 L57.0512077,1.86239837 L60.9410628,0.209146341 L61.5304348,0.209146341 L61.5304348,15.4426829 C61.5304348,16.9778455 61.5304348,17.922561 61.6483092,18.2768293 C61.7661836,18.6310976 61.884058,18.8672764 62.0019324,18.9853659 C62.1198068,19.1034553 62.3555556,19.2215447 62.5913043,19.2215447 C62.8270531,19.2215447 63.1806763,19.1034553 63.6521739,18.9853659 L63.7700483,19.4577236 L59.8801932,21.1109756 L59.1729469,21.1109756 L59.1729469,19.3396341 L59.1729469,19.3396341 L59.1729469,19.3396341 Z M59.1729469,18.3949187 L59.1729469,11.5457317 C59.1729469,10.9552846 58.9371981,10.246748 58.7014493,9.77439024 C58.4657005,9.18394309 57.9942029,8.8296748 57.5227053,8.59349593 C57.0512077,8.35731707 56.5797101,8.12113821 56.1082126,8.12113821 C55.2830918,8.12113821 54.5758454,8.4754065 53.868599,9.30203252 C53.0434783,10.3648374 52.5719807,11.7819106 52.5719807,13.6713415 C52.5719807,15.5607724 53.0434783,17.095935 53.868599,18.1587398 C54.6937198,19.2215447 55.636715,19.6939024 56.5797101,19.6939024 C57.6405797,19.6939024 58.4657005,19.2215447 59.1729469,18.3949187 L59.1729469,18.3949187 L59.1729469,18.3949187 Z" id="Shape" fill="#000000"></path>
                            <path d="M77.9149758,0.327235772 L77.9149758,17.8044715 C77.9149758,18.6310976 78.0328502,19.2215447 78.1507246,19.4577236 C78.268599,19.6939024 78.5043478,19.9300813 78.7400966,20.0481707 C78.9758454,20.1662602 79.447343,20.2843496 80.1545894,20.2843496 L80.1545894,20.7567073 L73.789372,20.7567073 L73.789372,20.2843496 C74.378744,20.2843496 74.7323671,20.1662602 74.9681159,20.0481707 C75.2038647,19.9300813 75.3217391,19.6939024 75.4396135,19.4577236 C75.5574879,19.2215447 75.6753623,18.6310976 75.6753623,17.8044715 L75.6753623,5.75934959 C75.6753623,4.22418699 75.6753623,3.39756098 75.5574879,3.04329268 C75.4396135,2.68902439 75.4396135,2.45284553 75.2038647,2.3347561 C75.0859903,2.21666667 74.8502415,2.09857724 74.6144928,2.09857724 C74.378744,2.09857724 74.0251208,2.21666667 73.6714976,2.3347561 L73.4357488,1.86239837 L77.3256039,0.209146341 L77.9149758,0.209146341 L77.9149758,0.327235772 L77.9149758,0.327235772 Z" id="Shape" fill="#000000"></path>
                            <path d="M83.3371981,18.0406504 C83.8086957,18.0406504 84.1623188,18.1587398 84.3980676,18.5130081 C84.7516908,18.8672764 84.8695652,19.2215447 84.8695652,19.6939024 C84.8695652,20.1662602 84.7516908,20.5205285 84.3980676,20.8747967 C84.0444444,21.229065 83.6908213,21.3471545 83.3371981,21.3471545 C82.8657005,21.3471545 82.5120773,21.229065 82.2763285,20.8747967 C81.9227053,20.5205285 81.8048309,20.1662602 81.8048309,19.6939024 C81.8048309,19.2215447 81.9227053,18.8672764 82.2763285,18.5130081 C82.6299517,18.1587398 82.9835749,18.0406504 83.3371981,18.0406504 L83.3371981,18.0406504 L83.3371981,18.0406504 Z" id="Shape" fill="#000000"></path>
                            <path d="M103.49372,7.2945122 L103.49372,11.7819106 L103.022222,11.7819106 C102.668599,10.3648374 102.197101,9.42012195 101.607729,8.94776423 C101.018357,8.4754065 100.311111,8.23922764 99.4859903,8.23922764 C98.778744,8.23922764 98.3072464,8.35731707 97.8357488,8.8296748 C97.4821256,9.18394309 97.2463768,9.53821138 97.2463768,10.0105691 C97.2463768,10.6010163 97.3642512,10.9552846 97.7178744,11.4276423 C97.9536232,11.7819106 98.6608696,12.2542683 99.4859903,12.726626 L101.489855,13.7894309 C103.375845,14.7341463 104.318841,16.0331301 104.318841,17.5682927 C104.318841,18.749187 103.847343,19.6939024 103.022222,20.5205285 C102.079227,21.229065 101.136232,21.5833333 100.075362,21.5833333 C99.2502415,21.5833333 98.4251208,21.4652439 97.3642512,21.1109756 C97.010628,20.9928862 96.7748792,20.9928862 96.6570048,20.9928862 C96.421256,20.9928862 96.3033816,21.1109756 96.1855072,21.3471545 L95.7140097,21.3471545 L95.7140097,16.6235772 L96.1855072,16.6235772 C96.421256,17.922561 97.010628,18.9853659 97.7178744,19.6939024 C98.4251208,20.402439 99.2502415,20.7567073 100.193237,20.7567073 C100.900483,20.7567073 101.371981,20.5205285 101.725604,20.1662602 C102.079227,19.8119919 102.314976,19.3396341 102.314976,18.749187 C102.314976,18.0406504 102.079227,17.5682927 101.607729,17.095935 C101.136232,16.6235772 100.193237,16.0331301 98.8966184,15.3245935 C97.4821256,14.6160569 96.6570048,14.0256098 96.1855072,13.4351626 C95.7140097,12.8447154 95.5961353,12.2542683 95.5961353,11.3095528 C95.5961353,10.246748 95.9497585,9.30203252 96.6570048,8.59349593 C97.3642512,7.88495935 98.3072464,7.53069106 99.4859903,7.53069106 C99.9574879,7.53069106 100.664734,7.64878049 101.371981,7.88495935 C101.843478,8.00304878 102.197101,8.12113821 102.314976,8.12113821 C102.43285,8.12113821 102.550725,8.12113821 102.668599,8.00304878 C102.786473,7.88495935 102.904348,7.76686992 102.904348,7.53069106 L103.49372,7.53069106 L103.49372,7.2945122 L103.49372,7.2945122 Z" id="Shape" fill="#000000"></path>
                            <path d="M111.744928,0.327235772 L111.744928,17.8044715 C111.744928,18.6310976 111.862802,19.2215447 111.980676,19.4577236 C112.098551,19.6939024 112.3343,19.9300813 112.570048,20.0481707 C112.805797,20.1662602 113.277295,20.2843496 113.984541,20.2843496 L113.984541,20.7567073 L107.619324,20.7567073 L107.619324,20.2843496 C108.208696,20.2843496 108.562319,20.1662602 108.798068,20.0481707 C109.033816,19.9300813 109.151691,19.6939024 109.269565,19.4577236 C109.38744,19.2215447 109.505314,18.6310976 109.505314,17.8044715 L109.505314,5.75934959 C109.505314,4.22418699 109.505314,3.39756098 109.38744,3.04329268 C109.269565,2.68902439 109.269565,2.45284553 109.033816,2.3347561 C108.915942,2.21666667 108.680193,2.09857724 108.444444,2.09857724 C108.208696,2.09857724 107.855072,2.21666667 107.501449,2.3347561 L107.2657,1.86239837 L111.155556,0.209146341 L111.744928,0.209146341 L111.744928,0.327235772 L111.744928,0.327235772 Z" id="Shape" fill="#000000"></path>
                            <path d="M122.589372,7.2945122 C124.593237,7.2945122 126.125604,8.00304878 127.304348,9.53821138 C128.365217,10.8371951 128.836715,12.3723577 128.836715,14.0256098 C128.836715,15.2065041 128.600966,16.3873984 128.011594,17.5682927 C127.422222,18.749187 126.714976,19.6939024 125.771981,20.2843496 C124.828986,20.8747967 123.768116,21.229065 122.471498,21.229065 C120.467633,21.229065 118.935266,20.402439 117.874396,18.8672764 C116.931401,17.5682927 116.459903,16.0331301 116.459903,14.379878 C116.459903,13.1989837 116.695652,12.0180894 117.285024,10.7191057 C117.874396,9.53821138 118.699517,8.59349593 119.642512,8.12113821 C120.467633,7.53069106 121.528502,7.2945122 122.589372,7.2945122 L122.589372,7.2945122 L122.589372,7.2945122 Z M122.117874,8.23922764 C121.646377,8.23922764 121.174879,8.35731707 120.585507,8.71158537 C120.11401,9.06585366 119.642512,9.53821138 119.406763,10.3648374 C119.05314,11.073374 118.935266,12.1361789 118.935266,13.3170732 C118.935266,15.2065041 119.288889,16.8597561 120.11401,18.2768293 C120.821256,19.6939024 121.882126,20.402439 123.06087,20.402439 C124.003865,20.402439 124.711111,20.0481707 125.300483,19.2215447 C125.889855,18.3949187 126.243478,17.095935 126.243478,15.2065041 C126.243478,12.8447154 125.771981,10.9552846 124.711111,9.65630081 C124.003865,8.59349593 123.178744,8.23922764 122.117874,8.23922764 L122.117874,8.23922764 L122.117874,8.23922764 Z" id="Shape" fill="#000000"></path>
                            <path d="M130.958454,7.64878049 L137.087923,7.64878049 L137.087923,8.23922764 L136.7343,8.23922764 C136.380676,8.23922764 136.144928,8.35731707 135.909179,8.4754065 C135.67343,8.71158537 135.67343,8.94776423 135.67343,9.18394309 C135.67343,9.53821138 135.791304,9.89247967 136.027053,10.3648374 L138.973913,17.6863821 L142.038647,10.1286585 C142.274396,9.53821138 142.392271,9.18394309 142.392271,8.94776423 C142.392271,8.8296748 142.392271,8.71158537 142.274396,8.59349593 C142.156522,8.4754065 142.038647,8.35731707 141.920773,8.23922764 C141.802899,8.23922764 141.449275,8.12113821 140.977778,8.12113821 L140.977778,7.53069106 L145.221256,7.53069106 L145.221256,8.12113821 C144.749758,8.12113821 144.396135,8.23922764 144.160386,8.4754065 C143.806763,8.71158537 143.571014,9.30203252 143.217391,9.89247967 L138.62029,21.229065 L138.030918,21.229065 L133.433816,10.1286585 C133.198068,9.65630081 133.080193,9.18394309 132.844444,9.06585366 C132.608696,8.8296748 132.372947,8.71158537 132.137198,8.4754065 C132.019324,8.35731707 131.6657,8.35731707 131.194203,8.23922764 L131.194203,7.64878049 L130.958454,7.64878049 L130.958454,7.64878049 Z" id="Shape" fill="#000000"></path>
                            <path d="M154.297585,18.9853659 C153.000966,20.0481707 152.175845,20.6386179 151.822222,20.7567073 C151.350725,20.9928862 150.761353,21.1109756 150.171981,21.1109756 C149.228986,21.1109756 148.521739,20.7567073 147.932367,20.1662602 C147.342995,19.575813 147.107246,18.749187 147.107246,17.6863821 C147.107246,17.095935 147.225121,16.5054878 147.578744,16.0331301 C147.932367,15.4426829 148.639614,14.7341463 149.582609,14.1436992 C150.525604,13.553252 152.175845,12.8447154 154.297585,12.0180894 L154.297585,11.5457317 C154.297585,10.246748 154.061836,9.30203252 153.708213,8.8296748 C153.354589,8.35731707 152.647343,8.12113821 151.940097,8.12113821 C151.350725,8.12113821 150.879227,8.23922764 150.525604,8.59349593 C150.171981,8.94776423 149.936232,9.30203252 149.936232,9.65630081 L149.936232,10.4829268 C149.936232,10.9552846 149.818357,11.3095528 149.582609,11.5457317 C149.34686,11.7819106 149.111111,11.9 148.757488,11.9 C148.403865,11.9 148.168116,11.7819106 147.932367,11.5457317 C147.696618,11.3095528 147.578744,10.9552846 147.578744,10.4829268 C147.578744,9.65630081 148.050242,8.94776423 148.875362,8.23922764 C149.700483,7.53069106 150.879227,7.17642276 152.411594,7.17642276 C153.590338,7.17642276 154.533333,7.41260163 155.24058,7.76686992 C155.829952,8.12113821 156.183575,8.59349593 156.419324,9.18394309 C156.537198,9.53821138 156.655072,10.4829268 156.655072,11.6638211 L156.655072,16.1512195 C156.655072,17.4502033 156.655072,18.1587398 156.772947,18.5130081 C156.772947,18.749187 156.890821,18.9853659 157.008696,19.1034553 C157.12657,19.2215447 157.244444,19.2215447 157.362319,19.2215447 C157.480193,19.2215447 157.598068,19.2215447 157.715942,19.1034553 C157.951691,18.9853659 158.305314,18.6310976 158.894686,18.0406504 L158.894686,18.8672764 C157.833816,20.2843496 156.890821,20.9928862 155.829952,20.9928862 C155.358454,20.9928862 155.004831,20.8747967 154.769082,20.5205285 C154.415459,20.2843496 154.297585,19.6939024 154.297585,18.9853659 L154.297585,18.9853659 L154.297585,18.9853659 Z M154.297585,18.0406504 L154.297585,12.9628049 C152.883092,13.553252 151.940097,13.9075203 151.586473,14.1436992 C150.879227,14.6160569 150.289855,14.9703252 149.936232,15.4426829 C149.582609,15.9150407 149.464734,16.3873984 149.464734,16.9778455 C149.464734,17.6863821 149.700483,18.2768293 150.054106,18.749187 C150.407729,19.2215447 150.879227,19.4577236 151.468599,19.4577236 C152.175845,19.4577236 153.118841,18.9853659 154.297585,18.0406504 L154.297585,18.0406504 L154.297585,18.0406504 Z" id="Shape" fill="#000000"></path>
                            <path d="M164.434783,10.0105691 C165.96715,8.12113821 167.381643,7.17642276 168.796135,7.17642276 C169.503382,7.17642276 170.092754,7.41260163 170.564251,7.76686992 C171.035749,8.12113821 171.507246,8.71158537 171.742995,9.53821138 C171.978744,10.1286585 172.096618,10.9552846 172.096618,12.1361789 L172.096618,17.8044715 C172.096618,18.6310976 172.214493,19.2215447 172.332367,19.4577236 C172.450242,19.6939024 172.568116,19.9300813 172.803865,20.0481707 C173.039614,20.1662602 173.511111,20.2843496 174.100483,20.2843496 L174.100483,20.7567073 L167.735266,20.7567073 L167.735266,20.2843496 L167.971014,20.2843496 C168.560386,20.2843496 169.031884,20.1662602 169.267633,20.0481707 C169.503382,19.8119919 169.621256,19.575813 169.73913,19.2215447 L169.73913,17.922561 L169.73913,12.4904472 C169.73913,11.3095528 169.621256,10.3648374 169.267633,9.89247967 C168.91401,9.30203252 168.442512,9.06585366 167.735266,9.06585366 C166.674396,9.06585366 165.495652,9.65630081 164.434783,10.9552846 L164.434783,17.922561 C164.434783,18.8672764 164.434783,19.3396341 164.552657,19.575813 C164.670531,19.8119919 164.90628,20.0481707 165.142029,20.1662602 C165.377778,20.2843496 165.849275,20.402439 166.556522,20.402439 L166.556522,20.8747967 L160.191304,20.8747967 L160.191304,20.402439 L160.427053,20.402439 C161.1343,20.402439 161.487923,20.2843496 161.723671,19.9300813 C161.95942,19.575813 162.077295,18.9853659 162.077295,17.922561 L162.077295,12.9628049 C162.077295,11.4276423 162.077295,10.3648374 161.95942,10.0105691 C161.841546,9.65630081 161.723671,9.42012195 161.605797,9.30203252 C161.487923,9.18394309 161.252174,9.06585366 161.016425,9.06585366 C160.780676,9.06585366 160.427053,9.18394309 160.07343,9.30203252 L159.837681,8.8296748 L163.727536,7.17642276 L164.316908,7.17642276 L164.316908,10.0105691 L164.434783,10.0105691 L164.434783,10.0105691 Z" id="Shape" fill="#000000"></path>
                            <path d="M176.69372,25.7164634 L176.69372,25.1260163 C177.636715,24.771748 178.461836,24.2993902 178.933333,23.5908537 C179.404831,22.8823171 179.758454,22.1737805 179.758454,21.4652439 C179.758454,21.229065 179.758454,21.1109756 179.64058,20.9928862 C179.522705,20.8747967 179.522705,20.8747967 179.404831,20.8747967 C179.286957,20.8747967 179.051208,20.9928862 178.697585,21.1109756 C178.57971,21.229065 178.343961,21.229065 178.108213,21.229065 C177.636715,21.229065 177.283092,21.1109756 177.047343,20.7567073 C176.811594,20.5205285 176.69372,20.0481707 176.69372,19.575813 C176.69372,19.1034553 176.929469,18.749187 177.165217,18.3949187 C177.518841,18.0406504 177.990338,17.922561 178.461836,17.922561 C179.051208,17.922561 179.64058,18.1587398 180.112077,18.749187 C180.583575,19.3396341 180.819324,20.0481707 180.819324,20.9928862 C180.819324,21.9376016 180.4657,22.8823171 179.758454,23.7089431 C179.286957,24.5355691 178.226087,25.2441057 176.69372,25.7164634 L176.69372,25.7164634 L176.69372,25.7164634 Z" id="Shape" fill="#000000"></path>
                            <path d="M199.914976,19.3396341 C199.325604,20.0481707 198.618357,20.5205285 198.028986,20.7567073 C197.439614,20.9928862 196.732367,21.229065 196.142995,21.229065 C194.728502,21.229065 193.549758,20.6386179 192.488889,19.4577236 C191.428019,18.2768293 190.956522,16.7416667 190.956522,14.8522358 C190.956522,12.9628049 191.545894,11.1914634 192.724638,9.65630081 C193.903382,8.12113821 195.435749,7.2945122 197.203865,7.2945122 C198.382609,7.2945122 199.325604,7.64878049 200.03285,8.35731707 L200.03285,5.87743902 C200.03285,4.34227642 200.03285,3.39756098 199.914976,3.04329268 C199.797101,2.68902439 199.679227,2.45284553 199.561353,2.3347561 C199.443478,2.21666667 199.207729,2.09857724 198.971981,2.09857724 C198.736232,2.09857724 198.382609,2.21666667 198.028986,2.3347561 L197.793237,1.86239837 L201.683092,0.209146341 L202.272464,0.209146341 L202.272464,15.4426829 C202.272464,16.9778455 202.272464,17.922561 202.390338,18.2768293 C202.508213,18.6310976 202.626087,18.8672764 202.743961,18.9853659 C202.861836,19.1034553 203.097585,19.2215447 203.333333,19.2215447 C203.569082,19.2215447 203.922705,19.1034553 204.394203,18.9853659 L204.512077,19.4577236 L200.622222,21.1109756 L199.914976,21.1109756 L199.914976,19.3396341 L199.914976,19.3396341 L199.914976,19.3396341 Z M199.914976,18.3949187 L199.914976,11.5457317 C199.914976,10.9552846 199.679227,10.246748 199.443478,9.77439024 C199.207729,9.18394309 198.736232,8.8296748 198.264734,8.59349593 C197.793237,8.35731707 197.321739,8.12113821 196.850242,8.12113821 C196.025121,8.12113821 195.317874,8.4754065 194.610628,9.30203252 C193.785507,10.3648374 193.31401,11.7819106 193.31401,13.6713415 C193.31401,15.5607724 193.785507,17.095935 194.610628,18.1587398 C195.435749,19.2215447 196.378744,19.6939024 197.321739,19.6939024 C198.264734,19.6939024 199.089855,19.2215447 199.914976,18.3949187 L199.914976,18.3949187 L199.914976,18.3949187 Z" id="Shape" fill="#000000"></path>
                            <path d="M209.9343,10.0105691 C210.877295,9.06585366 211.466667,8.4754065 211.584541,8.35731707 C212.056039,8.00304878 212.409662,7.76686992 212.999034,7.53069106 C213.470531,7.2945122 213.942029,7.17642276 214.413527,7.17642276 C215.238647,7.17642276 215.945894,7.41260163 216.535266,7.88495935 C217.124638,8.35731707 217.478261,9.06585366 217.71401,10.0105691 C218.657005,8.8296748 219.482126,8.12113821 220.189372,7.76686992 C220.896618,7.41260163 221.48599,7.17642276 222.193237,7.17642276 C222.900483,7.17642276 223.489855,7.41260163 224.079227,7.76686992 C224.550725,8.12113821 225.022222,8.71158537 225.375845,9.53821138 C225.611594,10.1286585 225.729469,10.9552846 225.729469,12.1361789 L225.729469,17.8044715 C225.729469,18.6310976 225.847343,19.2215447 225.965217,19.4577236 C226.083092,19.6939024 226.200966,19.8119919 226.436715,20.0481707 C226.672464,20.1662602 227.143961,20.2843496 227.733333,20.2843496 L227.733333,20.7567073 L221.368116,20.7567073 L221.368116,20.2843496 L221.603865,20.2843496 C222.193237,20.2843496 222.54686,20.1662602 222.900483,19.9300813 C223.136232,19.8119919 223.254106,19.575813 223.371981,19.2215447 L223.371981,17.8044715 L223.371981,12.1361789 C223.371981,11.073374 223.254106,10.246748 223.018357,9.89247967 C222.664734,9.30203252 222.075362,8.94776423 221.250242,8.94776423 C220.778744,8.94776423 220.307246,9.06585366 219.717874,9.30203252 C219.246377,9.53821138 218.657005,10.0105691 217.831884,10.7191057 L217.831884,10.8371951 L217.831884,11.4276423 L217.831884,17.6863821 C217.831884,18.6310976 217.831884,19.1034553 217.949758,19.3396341 C218.067633,19.575813 218.185507,19.6939024 218.53913,19.9300813 C218.774879,20.0481707 219.246377,20.1662602 219.953623,20.1662602 L219.953623,20.6386179 L213.352657,20.6386179 L213.352657,20.1662602 C214.059903,20.1662602 214.531401,20.0481707 214.885024,19.9300813 C215.120773,19.8119919 215.356522,19.4577236 215.474396,19.1034553 C215.474396,18.9853659 215.592271,18.5130081 215.592271,17.6863821 L215.592271,12.1361789 C215.592271,11.073374 215.474396,10.246748 215.120773,9.77439024 C214.649275,9.18394309 214.177778,8.8296748 213.352657,8.8296748 C212.881159,8.8296748 212.291787,8.94776423 211.82029,9.30203252 C210.995169,9.77439024 210.405797,10.246748 210.052174,10.7191057 L210.052174,17.8044715 C210.052174,18.6310976 210.170048,19.2215447 210.287923,19.4577236 C210.405797,19.6939024 210.523671,19.9300813 210.75942,20.0481707 C210.995169,20.1662602 211.466667,20.2843496 212.173913,20.2843496 L212.173913,20.7567073 L205.808696,20.7567073 L205.808696,20.2843496 C206.398068,20.2843496 206.869565,20.1662602 207.105314,20.0481707 C207.341063,19.9300813 207.576812,19.6939024 207.694686,19.4577236 C207.81256,19.2215447 207.930435,18.6310976 207.930435,17.8044715 L207.930435,12.726626 C207.930435,11.3095528 207.930435,10.3648374 207.81256,9.89247967 C207.694686,9.53821138 207.694686,9.30203252 207.458937,9.18394309 C207.341063,9.06585366 207.105314,8.94776423 206.869565,8.94776423 C206.633816,8.94776423 206.280193,9.06585366 205.92657,9.18394309 L205.690821,8.71158537 L209.580676,7.05833333 L210.170048,7.05833333 L210.170048,10.0105691 L209.9343,10.0105691 L209.9343,10.0105691 Z" id="Shape" fill="#000000"></path>
                            <path d="M238.695652,19.3396341 C238.10628,20.0481707 237.399034,20.5205285 236.809662,20.7567073 C236.22029,20.9928862 235.513043,21.229065 234.923671,21.229065 C233.509179,21.229065 232.330435,20.6386179 231.269565,19.4577236 C230.208696,18.2768293 229.737198,16.7416667 229.737198,14.8522358 C229.737198,12.9628049 230.32657,11.1914634 231.505314,9.65630081 C232.684058,8.12113821 234.216425,7.2945122 235.984541,7.2945122 C237.163285,7.2945122 238.10628,7.64878049 238.813527,8.35731707 L238.813527,5.87743902 C238.813527,4.34227642 238.813527,3.39756098 238.695652,3.04329268 C238.577778,2.68902439 238.459903,2.45284553 238.342029,2.3347561 C238.224155,2.21666667 237.988406,2.09857724 237.752657,2.09857724 C237.516908,2.09857724 237.163285,2.21666667 236.809662,2.3347561 L236.573913,1.86239837 L240.463768,0.209146341 L241.05314,0.209146341 L241.05314,15.4426829 C241.05314,16.9778455 241.05314,17.922561 241.171014,18.2768293 C241.288889,18.6310976 241.406763,18.8672764 241.524638,18.9853659 C241.642512,19.1034553 241.878261,19.2215447 242.11401,19.2215447 C242.349758,19.2215447 242.703382,19.1034553 243.174879,18.9853659 L243.292754,19.4577236 L239.402899,21.1109756 L238.695652,21.1109756 L238.695652,19.3396341 L238.695652,19.3396341 L238.695652,19.3396341 Z M238.695652,18.3949187 L238.695652,11.5457317 C238.695652,10.9552846 238.459903,10.246748 238.224155,9.77439024 C237.988406,9.18394309 237.516908,8.8296748 237.045411,8.59349593 C236.573913,8.35731707 236.102415,8.12113821 235.630918,8.12113821 C234.805797,8.12113821 234.098551,8.4754065 233.391304,9.30203252 C232.566184,10.3648374 232.094686,11.7819106 232.094686,13.6713415 C232.094686,15.5607724 232.566184,17.095935 233.391304,18.1587398 C234.216425,19.2215447 235.15942,19.6939024 236.102415,19.6939024 C237.045411,19.6939024 237.870531,19.2215447 238.695652,18.3949187 L238.695652,18.3949187 L238.695652,18.3949187 Z" id="Shape" fill="#000000"></path>
                            <polygon id="Shape" fill="#000000" points="1.65024155 34.4550813 241.406763 34.4550813 241.406763 35.6359756 1.65024155 35.6359756"></polygon>
                            <path d="M5.65797101,39.1786585 L237.516908,39.1786585 C239.992271,39.1786585 242.11401,41.1861789 242.11401,43.7841463 L242.11401,64.6859756 C242.11401,67.1658537 240.110145,69.2914634 237.516908,69.2914634 L5.65797101,69.2914634 C3.1826087,69.2914634 1.06086957,67.2839431 1.06086957,64.6859756 L1.06086957,43.7841463 C1.06086957,41.3042683 3.0647343,39.1786585 5.65797101,39.1786585 L5.65797101,39.1786585 L5.65797101,39.1786585 Z" id="Shape" fill="#91C9ED"></path>
                            <path d="M20.6280193,55.9473577 C20.3922705,57.128252 19.9207729,57.954878 19.2135266,58.5453252 C18.5062802,59.1357724 17.7990338,59.4900407 16.973913,59.4900407 C16.0309179,59.4900407 15.0879227,59.0176829 14.3806763,58.1910569 C13.67343,57.3644309 13.3198068,56.1835366 13.3198068,54.7664634 C13.3198068,53.3493902 13.67343,52.2865854 14.4985507,51.4599593 C15.3236715,50.6333333 16.2666667,50.1609756 17.4454106,50.1609756 C18.2705314,50.1609756 18.9777778,50.3971545 19.5671498,50.8695122 C20.1565217,51.3418699 20.3922705,51.8142276 20.3922705,52.2865854 C20.3922705,52.5227642 20.2743961,52.7589431 20.1565217,52.8770325 C20.0386473,52.995122 19.8028986,53.1132114 19.4492754,53.1132114 C19.0956522,53.1132114 18.742029,52.995122 18.6241546,52.7589431 C18.5062802,52.6408537 18.3884058,52.4046748 18.3884058,52.0504065 C18.3884058,51.6961382 18.2705314,51.3418699 18.0347826,51.2237805 C17.7990338,50.9876016 17.563285,50.9876016 17.0917874,50.9876016 C16.5024155,50.9876016 15.9130435,51.2237805 15.5594203,51.6961382 C15.0879227,52.2865854 14.7342995,53.1132114 14.7342995,54.1760163 C14.7342995,55.2388211 14.9700483,56.1835366 15.5594203,56.8920732 C16.0309179,57.7186992 16.7381643,58.0729675 17.6811594,58.0729675 C18.2705314,58.0729675 18.8599034,57.8367886 19.331401,57.4825203 C19.6850242,57.2463415 20.0386473,56.6558943 20.3922705,55.9473577 L20.6280193,55.9473577 L20.6280193,55.9473577 L20.6280193,55.9473577 Z" id="Shape" fill="#FFFFFF"></path>
                            <path d="M26.1681159,50.279065 C27.4647343,50.279065 28.5256039,50.7514228 29.3507246,51.8142276 C30.057971,52.6408537 30.4115942,53.7036585 30.4115942,54.7664634 C30.4115942,55.5930894 30.1758454,56.301626 29.8222222,57.128252 C29.468599,57.954878 28.8792271,58.5453252 28.2898551,58.8995935 C27.5826087,59.2538618 26.8753623,59.4900407 26.0502415,59.4900407 C24.7536232,59.4900407 23.6927536,59.0176829 22.8676329,57.954878 C22.1603865,57.128252 21.9246377,56.0654472 21.9246377,55.0026423 C21.9246377,54.1760163 22.1603865,53.3493902 22.5140097,52.6408537 C22.8676329,51.8142276 23.4570048,51.2237805 24.0463768,50.8695122 C24.7536232,50.5152439 25.4608696,50.279065 26.1681159,50.279065 L26.1681159,50.279065 L26.1681159,50.279065 Z M25.8144928,50.9876016 C25.4608696,50.9876016 25.1072464,51.1056911 24.7536232,51.3418699 C24.4,51.5780488 24.1642512,51.9323171 23.9285024,52.4046748 C23.6927536,52.8770325 23.5748792,53.5855691 23.5748792,54.2941057 C23.5748792,55.5930894 23.810628,56.6558943 24.2821256,57.6006098 C24.7536232,58.5453252 25.4608696,59.0176829 26.2859903,59.0176829 C26.8753623,59.0176829 27.3468599,58.7815041 27.8183575,58.3091463 C28.1719807,57.8367886 28.4077295,56.8920732 28.4077295,55.7111789 C28.4077295,54.1760163 28.0541063,52.995122 27.4647343,52.0504065 C27.1111111,51.2237805 26.5217391,50.9876016 25.8144928,50.9876016 L25.8144928,50.9876016 L25.8144928,50.9876016 Z" id="Shape" fill="#FFFFFF"></path>
                            <path d="M37.2483092,50.279065 L37.2483092,53.2313008 L36.894686,53.2313008 C36.6589372,52.2865854 36.305314,51.6961382 35.9516908,51.3418699 C35.5980676,50.9876016 35.12657,50.8695122 34.5371981,50.8695122 C34.0657005,50.8695122 33.7120773,50.9876016 33.4763285,51.2237805 C33.2405797,51.4599593 33.1227053,51.6961382 33.1227053,52.0504065 C33.1227053,52.4046748 33.2405797,52.7589431 33.4763285,52.995122 C33.7120773,53.2313008 34.0657005,53.5855691 34.6550725,53.821748 L36.0695652,54.5302846 C37.3661836,55.1207317 37.9555556,55.9473577 37.9555556,57.0101626 C37.9555556,57.8367886 37.6019324,58.4272358 37.0125604,58.8995935 C36.4231884,59.3719512 35.715942,59.6081301 35.0086957,59.6081301 C34.4193237,59.6081301 33.8299517,59.4900407 33.1227053,59.3719512 C32.8869565,59.2538618 32.7690821,59.2538618 32.6512077,59.2538618 C32.5333333,59.2538618 32.4154589,59.3719512 32.2975845,59.4900407 L31.9439614,59.4900407 L31.9439614,56.4197154 L32.2975845,56.4197154 C32.5333333,57.3644309 32.7690821,57.954878 33.3584541,58.4272358 C33.8299517,58.8995935 34.4193237,59.1357724 35.0086957,59.1357724 C35.4801932,59.1357724 35.8338164,59.0176829 36.0695652,58.7815041 C36.305314,58.5453252 36.4231884,58.1910569 36.4231884,57.8367886 C36.4231884,57.3644309 36.305314,57.0101626 35.9516908,56.7739837 C35.5980676,56.4197154 35.0086957,56.0654472 34.0657005,55.5930894 C33.1227053,55.1207317 32.5333333,54.7664634 32.2975845,54.4121951 C32.0618357,54.0579268 31.826087,53.5855691 31.826087,52.995122 C31.826087,52.2865854 32.0618357,51.6961382 32.5333333,51.2237805 C33.0048309,50.7514228 33.7120773,50.5152439 34.4193237,50.5152439 C34.7729469,50.5152439 35.12657,50.6333333 35.715942,50.7514228 C36.0695652,50.8695122 36.305314,50.8695122 36.305314,50.8695122 C36.4231884,50.8695122 36.5410628,50.8695122 36.5410628,50.7514228 C36.5410628,50.7514228 36.6589372,50.6333333 36.7768116,50.3971545 L37.2483092,50.3971545 L37.2483092,50.279065 L37.2483092,50.279065 Z" id="Shape" fill="#FFFFFF"></path>
                            <path d="M41.7275362,52.1684959 C42.3169082,51.5780488 42.7884058,51.2237805 42.9062802,51.1056911 C43.142029,50.8695122 43.4956522,50.6333333 43.8492754,50.5152439 C44.2028986,50.3971545 44.5565217,50.279065 44.7922705,50.279065 C45.3816425,50.279065 45.8531401,50.3971545 46.2067633,50.7514228 C46.5603865,51.1056911 46.9140097,51.5780488 47.0318841,52.1684959 C47.7391304,51.4599593 48.210628,50.8695122 48.6821256,50.6333333 C49.1536232,50.3971545 49.6251208,50.279065 50.0966184,50.279065 C50.5681159,50.279065 50.9217391,50.3971545 51.2753623,50.6333333 C51.6289855,50.8695122 51.8647343,51.2237805 52.1004831,51.8142276 C52.2183575,52.1684959 52.3362319,52.7589431 52.3362319,53.5855691 L52.3362319,57.3644309 C52.3362319,57.954878 52.3362319,58.3091463 52.4541063,58.4272358 C52.5719807,58.5453252 52.6898551,58.6634146 52.8077295,58.7815041 C52.9256039,58.8995935 53.2792271,58.8995935 53.6328502,58.8995935 L53.6328502,59.2538618 L49.389372,59.2538618 L49.389372,58.8995935 L49.6251208,58.8995935 C49.978744,58.8995935 50.3323671,58.7815041 50.4502415,58.6634146 C50.5681159,58.5453252 50.6859903,58.4272358 50.8038647,58.1910569 L50.8038647,57.2463415 L50.8038647,53.4674797 C50.8038647,52.7589431 50.6859903,52.2865854 50.5681159,51.9323171 C50.3323671,51.5780488 49.978744,51.3418699 49.389372,51.3418699 C49.0357488,51.3418699 48.6821256,51.4599593 48.3285024,51.5780488 C47.9748792,51.6961382 47.621256,52.0504065 47.1497585,52.5227642 L47.1497585,52.6408537 L47.1497585,52.995122 L47.1497585,57.128252 C47.1497585,57.7186992 47.1497585,58.0729675 47.2676329,58.1910569 C47.3855072,58.3091463 47.5033816,58.4272358 47.621256,58.5453252 C47.8570048,58.6634146 48.0927536,58.6634146 48.5642512,58.6634146 L48.5642512,59.0176829 L44.2028986,59.0176829 L44.2028986,58.6634146 C44.6743961,58.6634146 45.0280193,58.6634146 45.1458937,58.5453252 C45.3816425,58.4272358 45.4995169,58.3091463 45.4995169,58.0729675 L45.4995169,57.128252 L45.4995169,53.3493902 C45.4995169,52.6408537 45.3816425,52.1684959 45.1458937,51.8142276 C44.9101449,51.4599593 44.4386473,51.2237805 43.9671498,51.2237805 C43.6135266,51.2237805 43.2599034,51.3418699 42.9062802,51.4599593 C42.4347826,51.6961382 41.963285,52.0504065 41.7275362,52.4046748 L41.7275362,57.128252 C41.7275362,57.7186992 41.7275362,58.0729675 41.8454106,58.1910569 C41.963285,58.3091463 42.0811594,58.5453252 42.1990338,58.5453252 C42.3169082,58.6634146 42.6705314,58.6634146 43.142029,58.6634146 L43.142029,59.0176829 L38.8985507,59.0176829 L38.8985507,58.6634146 C39.2521739,58.6634146 39.6057971,58.6634146 39.7236715,58.5453252 C39.8415459,58.4272358 39.9594203,58.3091463 40.0772947,58.1910569 C40.1951691,57.954878 40.1951691,57.6006098 40.1951691,57.128252 L40.1951691,53.821748 C40.1951691,52.8770325 40.1951691,52.2865854 40.0772947,51.9323171 C40.0772947,51.6961382 39.9594203,51.5780488 39.8415459,51.4599593 C39.7236715,51.3418699 39.6057971,51.3418699 39.4879227,51.3418699 C39.2521739,51.3418699 39.1342995,51.3418699 38.8985507,51.4599593 L38.7806763,51.1056911 L41.373913,50.0428862 L41.7275362,50.0428862 L41.7275362,52.1684959 L41.7275362,52.1684959 L41.7275362,52.1684959 Z" id="Shape" fill="#FFFFFF"></path>
                            <path d="M55.8724638,53.821748 C55.8724638,55.1207317 56.226087,56.1835366 56.8154589,56.8920732 C57.4048309,57.6006098 58.2299517,57.954878 59.0550725,57.954878 C59.6444444,57.954878 60.115942,57.8367886 60.5874396,57.4825203 C61.0589372,57.128252 61.4125604,56.6558943 61.6483092,55.8292683 L62.0019324,56.0654472 C61.884058,56.8920732 61.5304348,57.7186992 60.8231884,58.4272358 C60.2338164,59.1357724 59.4086957,59.4900407 58.4657005,59.4900407 C57.4048309,59.4900407 56.5797101,59.1357724 55.7545894,58.3091463 C55.047343,57.4825203 54.6937198,56.4197154 54.6937198,55.0026423 C54.6937198,53.4674797 55.047343,52.4046748 55.8724638,51.4599593 C56.5797101,50.6333333 57.6405797,50.1609756 58.7014493,50.1609756 C59.6444444,50.1609756 60.4695652,50.5152439 61.0589372,51.1056911 C61.6483092,51.6961382 62.0019324,52.6408537 62.0019324,53.7036585 L55.8724638,53.7036585 L55.8724638,53.821748 L55.8724638,53.821748 Z M55.8724638,53.3493902 L59.8801932,53.3493902 C59.8801932,52.7589431 59.7623188,52.4046748 59.6444444,52.1684959 C59.52657,51.8142276 59.2908213,51.5780488 58.9371981,51.3418699 C58.5835749,51.1056911 58.3478261,50.9876016 57.9942029,50.9876016 C57.5227053,50.9876016 57.0512077,51.2237805 56.5797101,51.5780488 C56.1082126,52.0504065 55.8724638,52.5227642 55.8724638,53.3493902 L55.8724638,53.3493902 L55.8724638,53.3493902 Z" id="Shape" fill="#FFFFFF"></path>
                            <path d="M65.5381643,47.6810976 L65.5381643,50.5152439 L67.542029,50.5152439 L67.542029,51.2237805 L65.5381643,51.2237805 L65.5381643,56.8920732 C65.5381643,57.4825203 65.6560386,57.8367886 65.773913,58.0729675 C65.8917874,58.3091463 66.1275362,58.4272358 66.363285,58.4272358 C66.5990338,58.4272358 66.7169082,58.3091463 66.952657,58.1910569 C67.1884058,58.0729675 67.3062802,57.8367886 67.4241546,57.6006098 L67.7777778,57.6006098 C67.542029,58.1910569 67.1884058,58.6634146 66.8347826,59.0176829 C66.4811594,59.3719512 66.0096618,59.4900407 65.5381643,59.4900407 C65.3024155,59.4900407 64.9487923,59.3719512 64.7130435,59.2538618 C64.4772947,59.1357724 64.2415459,58.8995935 64.1236715,58.5453252 C64.0057971,58.1910569 63.8879227,57.8367886 63.8879227,57.128252 L63.8879227,51.2237805 L62.47343,51.2237805 L62.47343,50.8695122 C62.8270531,50.7514228 63.1806763,50.5152439 63.5342995,50.1609756 C63.8879227,49.8067073 64.2415459,49.452439 64.4772947,48.9800813 C64.5951691,48.7439024 64.8309179,48.2715447 65.0666667,47.6810976 L65.5381643,47.6810976 L65.5381643,47.6810976 L65.5381643,47.6810976 Z" id="Shape" fill="#FFFFFF"></path>
                            <path d="M70.6067633,45.7916667 C70.8425121,45.7916667 71.0782609,45.9097561 71.3140097,46.0278455 C71.5497585,46.2640244 71.5497585,46.5002033 71.5497585,46.7363821 C71.5497585,46.972561 71.4318841,47.2087398 71.3140097,47.4449187 C71.0782609,47.6810976 70.8425121,47.6810976 70.6067633,47.6810976 C70.3710145,47.6810976 70.1352657,47.5630081 69.8995169,47.4449187 C69.6637681,47.2087398 69.6637681,46.972561 69.6637681,46.7363821 C69.6637681,46.5002033 69.7816425,46.2640244 69.8995169,46.0278455 C70.1352657,45.7916667 70.3710145,45.7916667 70.6067633,45.7916667 L70.6067633,45.7916667 L70.6067633,45.7916667 Z M71.4318841,50.279065 L71.4318841,57.2463415 C71.4318841,57.8367886 71.4318841,58.1910569 71.5497585,58.3091463 C71.6676329,58.5453252 71.7855072,58.6634146 71.9033816,58.6634146 C72.021256,58.7815041 72.3748792,58.7815041 72.7285024,58.7815041 L72.7285024,59.1357724 L68.4850242,59.1357724 L68.4850242,58.7815041 C68.9565217,58.7815041 69.1922705,58.7815041 69.3101449,58.6634146 C69.4280193,58.5453252 69.5458937,58.4272358 69.6637681,58.3091463 C69.7816425,58.0729675 69.7816425,57.7186992 69.7816425,57.2463415 L69.7816425,53.821748 C69.7816425,52.8770325 69.7816425,52.2865854 69.6637681,51.9323171 C69.6637681,51.6961382 69.5458937,51.5780488 69.4280193,51.4599593 C69.3101449,51.3418699 69.1922705,51.3418699 69.0743961,51.3418699 C68.8386473,51.3418699 68.7207729,51.3418699 68.4850242,51.4599593 L68.3671498,51.1056911 L70.9603865,50.0428862 L71.4318841,50.0428862 L71.4318841,50.279065 L71.4318841,50.279065 Z" id="Shape" fill="#FFFFFF"></path>
                            <path d="M81.2154589,55.9473577 C80.9797101,57.128252 80.5082126,57.954878 79.8009662,58.5453252 C79.0937198,59.1357724 78.3864734,59.4900407 77.5613527,59.4900407 C76.6183575,59.4900407 75.6753623,59.0176829 74.9681159,58.1910569 C74.2608696,57.3644309 73.9072464,56.1835366 73.9072464,54.7664634 C73.9072464,53.3493902 74.2608696,52.2865854 75.0859903,51.4599593 C75.9111111,50.6333333 76.8541063,50.1609756 78.0328502,50.1609756 C78.857971,50.1609756 79.5652174,50.3971545 80.1545894,50.8695122 C80.7439614,51.3418699 80.9797101,51.8142276 80.9797101,52.2865854 C80.9797101,52.5227642 80.8618357,52.7589431 80.7439614,52.8770325 C80.626087,52.995122 80.3903382,53.1132114 80.036715,53.1132114 C79.6830918,53.1132114 79.3294686,52.995122 79.2115942,52.7589431 C79.0937198,52.6408537 78.9758454,52.4046748 78.9758454,52.0504065 C78.9758454,51.6961382 78.857971,51.3418699 78.6222222,51.2237805 C78.3864734,50.9876016 78.1507246,50.9876016 77.6792271,50.9876016 C77.0898551,50.9876016 76.5004831,51.2237805 76.1468599,51.6961382 C75.6753623,52.2865854 75.3217391,53.1132114 75.3217391,54.1760163 C75.3217391,55.2388211 75.5574879,56.1835366 76.0289855,56.8920732 C76.5004831,57.7186992 77.2077295,58.0729675 78.1507246,58.0729675 C78.7400966,58.0729675 79.3294686,57.8367886 79.8009662,57.4825203 C80.1545894,57.2463415 80.5082126,56.6558943 80.8618357,55.9473577 L81.2154589,55.9473577 L81.2154589,55.9473577 L81.2154589,55.9473577 Z" id="Shape" fill="#FFFFFF"></path>
                            <path d="M96.6570048,50.9876016 L100.664734,50.9876016 L100.664734,51.3418699 C100.075362,51.3418699 99.7217391,51.4599593 99.4859903,51.6961382 C99.2502415,51.9323171 98.778744,52.5227642 98.3072464,53.4674797 C97.7178744,54.5302846 97.1285024,55.475 96.421256,56.301626 C97.010628,57.0101626 97.4821256,57.3644309 97.9536232,57.7186992 C98.4251208,57.954878 98.8966184,58.0729675 99.2502415,58.0729675 C99.7217391,58.0729675 100.075362,57.954878 100.311111,57.7186992 C100.664734,57.4825203 100.782609,57.128252 100.900483,56.6558943 L101.254106,56.8920732 C101.018357,57.8367886 100.664734,58.4272358 100.075362,58.8995935 C99.6038647,59.3719512 98.8966184,59.4900407 98.3072464,59.4900407 C97.8357488,59.4900407 97.2463768,59.3719512 96.7748792,59.0176829 C96.1855072,58.7815041 95.5961353,58.3091463 95.0067633,57.6006098 C94.1816425,58.3091463 93.4743961,58.7815041 92.8850242,59.0176829 C92.2956522,59.2538618 91.5884058,59.3719512 90.8811594,59.3719512 C89.8202899,59.3719512 88.9951691,59.1357724 88.4057971,58.5453252 C87.8164251,57.954878 87.4628019,57.3644309 87.4628019,56.5378049 C87.4628019,55.7111789 87.6985507,55.0026423 88.2879227,54.2941057 C88.8772947,53.5855691 89.8202899,52.7589431 91.352657,51.9323171 C90.9990338,51.2237805 90.8811594,50.7514228 90.763285,50.279065 C90.6454106,49.8067073 90.6454106,49.452439 90.6454106,49.0981707 C90.6454106,48.0353659 90.9990338,47.2087398 91.8241546,46.6182927 C92.4135266,46.145935 93.1207729,45.9097561 93.9458937,45.9097561 C94.6531401,45.9097561 95.3603865,46.145935 95.8318841,46.6182927 C96.3033816,47.0906504 96.5391304,47.5630081 96.5391304,48.2715447 C96.5391304,48.9800813 96.3033816,49.5705285 95.8318841,50.0428862 C95.3603865,50.5152439 94.5352657,51.1056911 93.3565217,51.6961382 C94.1816425,53.1132114 95.0067633,54.4121951 95.8318841,55.5930894 C96.8927536,54.2941057 97.4821256,53.1132114 97.4821256,52.1684959 C97.4821256,51.9323171 97.3642512,51.5780488 97.2463768,51.3418699 C97.1285024,51.2237805 96.8927536,51.1056911 96.6570048,50.9876016 L96.6570048,50.9876016 L96.6570048,50.9876016 L96.6570048,50.9876016 Z M93.0028986,51.2237805 C93.8280193,50.8695122 94.4173913,50.3971545 94.7710145,49.9247967 C95.1246377,49.452439 95.3603865,48.8619919 95.3603865,48.3896341 C95.3603865,47.9172764 95.2425121,47.5630081 94.8888889,47.2087398 C94.6531401,46.8544715 94.2995169,46.7363821 93.8280193,46.7363821 C93.2386473,46.7363821 92.8850242,46.972561 92.531401,47.3268293 C92.2956522,47.6810976 92.0599034,48.0353659 92.0599034,48.5077236 C92.0599034,48.8619919 92.0599034,49.2162602 92.1777778,49.5705285 C92.531401,49.9247967 92.7671498,50.5152439 93.0028986,51.2237805 L93.0028986,51.2237805 L93.0028986,51.2237805 Z M94.5352657,57.128252 C93.7101449,55.9473577 93.1207729,55.1207317 92.7671498,54.648374 C92.4135266,54.1760163 92.0599034,53.4674797 91.7062802,52.6408537 C90.9990338,53.1132114 90.4096618,53.5855691 89.9381643,54.0579268 C89.5845411,54.5302846 89.3487923,55.1207317 89.3487923,55.8292683 C89.3487923,56.5378049 89.5845411,57.128252 90.0560386,57.6006098 C90.5275362,58.0729675 91.1169082,58.4272358 91.8241546,58.4272358 C92.1777778,58.4272358 92.6492754,58.3091463 93.0028986,58.1910569 C93.3565217,58.0729675 93.8280193,57.7186992 94.5352657,57.128252 L94.5352657,57.128252 L94.5352657,57.128252 Z" id="Shape" fill="#FFFFFF"></path>
                            <path d="M110.801932,51.2237805 L110.801932,57.0101626 C110.801932,57.8367886 110.919807,58.3091463 111.037681,58.5453252 C111.27343,58.7815041 111.627053,59.0176829 111.980676,59.0176829 L112.805797,59.0176829 L112.805797,59.3719512 L107.619324,59.3719512 L107.619324,59.0176829 L107.972947,59.0176829 C108.208696,59.0176829 108.444444,58.8995935 108.680193,58.7815041 C108.915942,58.6634146 109.033816,58.4272358 109.151691,58.3091463 C109.269565,58.0729675 109.269565,57.7186992 109.269565,57.0101626 L109.269565,51.2237805 L107.619324,51.2237805 L107.619324,50.5152439 L109.269565,50.5152439 L109.269565,49.9247967 C109.269565,49.0981707 109.38744,48.2715447 109.741063,47.6810976 C109.976812,47.0906504 110.448309,46.6182927 111.037681,46.2640244 C111.627053,45.9097561 112.216425,45.6735772 112.923671,45.6735772 C113.630918,45.6735772 114.22029,45.9097561 114.809662,46.2640244 C115.163285,46.5002033 115.399034,46.8544715 115.399034,47.2087398 C115.399034,47.4449187 115.281159,47.5630081 115.163285,47.799187 C115.045411,47.9172764 114.809662,48.0353659 114.573913,48.0353659 C114.456039,48.0353659 114.22029,48.0353659 114.102415,47.9172764 C113.984541,47.799187 113.748792,47.5630081 113.513043,47.2087398 C113.277295,46.8544715 113.041546,46.6182927 112.923671,46.5002033 C112.687923,46.3821138 112.452174,46.2640244 112.216425,46.2640244 C111.980676,46.2640244 111.627053,46.3821138 111.509179,46.5002033 C111.27343,46.6182927 111.155556,46.8544715 111.037681,47.2087398 C110.919807,47.5630081 110.919807,48.3896341 110.919807,49.6886179 L110.919807,50.279065 L113.15942,50.279065 L113.15942,50.9876016 L110.801932,50.9876016 L110.801932,51.2237805 L110.801932,51.2237805 Z" id="Shape" fill="#FFFFFF"></path>
                            <path d="M118.817391,58.0729675 C117.874396,58.7815041 117.402899,59.1357724 117.16715,59.2538618 C116.813527,59.3719512 116.459903,59.4900407 116.10628,59.4900407 C115.516908,59.4900407 115.045411,59.2538618 114.573913,58.8995935 C114.22029,58.5453252 113.984541,57.954878 113.984541,57.2463415 C113.984541,56.7739837 114.102415,56.4197154 114.22029,56.1835366 C114.456039,55.7111789 114.927536,55.3569106 115.516908,55.0026423 C116.10628,54.648374 117.285024,54.1760163 118.699517,53.5855691 L118.699517,53.2313008 C118.699517,52.4046748 118.581643,51.8142276 118.345894,51.4599593 C118.110145,51.1056911 117.638647,50.9876016 117.16715,50.9876016 C116.813527,50.9876016 116.459903,51.1056911 116.224155,51.3418699 C115.988406,51.5780488 115.870531,51.8142276 115.870531,52.0504065 L115.870531,52.6408537 C115.870531,52.8770325 115.752657,53.1132114 115.634783,53.3493902 C115.516908,53.4674797 115.281159,53.5855691 115.045411,53.5855691 C114.809662,53.5855691 114.573913,53.4674797 114.456039,53.3493902 C114.338164,53.2313008 114.22029,52.995122 114.22029,52.6408537 C114.22029,52.0504065 114.456039,51.5780488 115.045411,51.1056911 C115.634783,50.6333333 116.342029,50.3971545 117.402899,50.3971545 C118.228019,50.3971545 118.817391,50.5152439 119.288889,50.7514228 C119.642512,50.9876016 119.996135,51.2237805 120.11401,51.6961382 C120.231884,51.9323171 120.231884,52.5227642 120.231884,53.3493902 L120.231884,56.301626 L120.231884,57.8367886 C120.231884,58.0729675 120.349758,58.1910569 120.349758,58.1910569 C120.467633,58.3091463 120.467633,58.3091463 120.585507,58.3091463 C120.703382,58.3091463 120.821256,58.3091463 120.821256,58.1910569 C120.93913,58.0729675 121.174879,57.8367886 121.646377,57.4825203 L121.646377,58.0729675 C120.93913,59.0176829 120.231884,59.4900407 119.642512,59.4900407 C119.288889,59.4900407 119.05314,59.3719512 118.935266,59.1357724 C118.817391,58.8995935 118.817391,58.5453252 118.817391,58.0729675 L118.817391,58.0729675 L118.817391,58.0729675 Z M118.817391,57.3644309 L118.817391,54.0579268 C117.874396,54.4121951 117.285024,54.7664634 116.931401,54.8845528 C116.459903,55.1207317 116.10628,55.475 115.870531,55.7111789 C115.634783,56.0654472 115.516908,56.301626 115.516908,56.6558943 C115.516908,57.128252 115.634783,57.4825203 115.870531,57.8367886 C116.10628,58.1910569 116.459903,58.3091463 116.813527,58.3091463 C117.402899,58.4272358 117.992271,58.0729675 118.817391,57.3644309 L118.817391,57.3644309 L118.817391,57.3644309 Z" id="Shape" fill="#FFFFFF"></path>
                            <path d="M125.064734,52.1684959 C125.654106,51.5780488 126.125604,51.2237805 126.243478,51.1056911 C126.479227,50.8695122 126.83285,50.6333333 127.186473,50.5152439 C127.540097,50.3971545 127.89372,50.279065 128.129469,50.279065 C128.718841,50.279065 129.190338,50.3971545 129.543961,50.7514228 C129.897585,51.1056911 130.251208,51.5780488 130.369082,52.1684959 C131.076329,51.4599593 131.547826,50.8695122 132.019324,50.6333333 C132.490821,50.3971545 132.962319,50.279065 133.433816,50.279065 C133.905314,50.279065 134.258937,50.3971545 134.61256,50.6333333 C134.966184,50.8695122 135.201932,51.2237805 135.437681,51.8142276 C135.555556,52.1684959 135.67343,52.7589431 135.67343,53.5855691 L135.67343,57.3644309 C135.67343,57.954878 135.67343,58.3091463 135.791304,58.4272358 C135.909179,58.5453252 136.027053,58.6634146 136.144928,58.7815041 C136.262802,58.8995935 136.616425,58.8995935 136.970048,58.8995935 L136.970048,59.2538618 L132.72657,59.2538618 L132.72657,58.8995935 L132.962319,58.8995935 C133.315942,58.8995935 133.669565,58.7815041 133.78744,58.6634146 C133.905314,58.5453252 134.023188,58.4272358 134.141063,58.1910569 L134.141063,57.2463415 L134.141063,53.4674797 C134.141063,52.7589431 134.023188,52.2865854 133.905314,51.9323171 C133.669565,51.5780488 133.315942,51.3418699 132.72657,51.3418699 C132.372947,51.3418699 132.019324,51.4599593 131.6657,51.5780488 C131.312077,51.6961382 130.958454,52.0504065 130.486957,52.5227642 L130.486957,52.6408537 L130.486957,52.995122 L130.486957,57.128252 C130.486957,57.7186992 130.486957,58.0729675 130.604831,58.1910569 C130.722705,58.3091463 130.84058,58.4272358 130.958454,58.5453252 C131.194203,58.6634146 131.429952,58.6634146 131.901449,58.6634146 L131.901449,59.0176829 L127.540097,59.0176829 L127.540097,58.6634146 C128.011594,58.6634146 128.365217,58.6634146 128.483092,58.5453252 C128.718841,58.4272358 128.836715,58.3091463 128.836715,58.0729675 L128.836715,57.128252 L128.836715,53.3493902 C128.836715,52.6408537 128.718841,52.1684959 128.483092,51.8142276 C128.247343,51.4599593 127.775845,51.2237805 127.304348,51.2237805 C126.950725,51.2237805 126.597101,51.3418699 126.243478,51.4599593 C125.771981,51.6961382 125.300483,52.0504065 125.064734,52.4046748 L125.064734,57.128252 C125.064734,57.7186992 125.064734,58.0729675 125.182609,58.1910569 C125.300483,58.3091463 125.418357,58.5453252 125.536232,58.5453252 C125.654106,58.6634146 126.007729,58.6634146 126.479227,58.6634146 L126.479227,59.0176829 L122.117874,59.0176829 L122.117874,58.6634146 C122.471498,58.6634146 122.825121,58.6634146 122.942995,58.5453252 C123.06087,58.4272358 123.178744,58.3091463 123.296618,58.1910569 C123.414493,57.954878 123.414493,57.6006098 123.414493,57.128252 L123.414493,53.821748 C123.414493,52.8770325 123.414493,52.2865854 123.296618,51.9323171 C123.296618,51.6961382 123.178744,51.5780488 123.06087,51.4599593 C122.942995,51.3418699 122.825121,51.3418699 122.707246,51.3418699 C122.471498,51.3418699 122.353623,51.3418699 122.117874,51.4599593 L122,51.1056911 L124.593237,50.0428862 L124.94686,50.0428862 L124.94686,52.1684959 L125.064734,52.1684959 L125.064734,52.1684959 Z" id="Shape" fill="#FFFFFF"></path>
                            <path d="M139.799034,45.7916667 C140.034783,45.7916667 140.270531,45.9097561 140.50628,46.0278455 C140.742029,46.2640244 140.742029,46.5002033 140.742029,46.7363821 C140.742029,46.972561 140.624155,47.2087398 140.50628,47.4449187 C140.270531,47.6810976 140.034783,47.6810976 139.799034,47.6810976 C139.563285,47.6810976 139.327536,47.5630081 139.091787,47.4449187 C138.856039,47.2087398 138.856039,46.972561 138.856039,46.7363821 C138.856039,46.5002033 138.973913,46.2640244 139.091787,46.0278455 C139.327536,45.7916667 139.563285,45.7916667 139.799034,45.7916667 L139.799034,45.7916667 L139.799034,45.7916667 Z M140.624155,50.279065 L140.624155,57.2463415 C140.624155,57.8367886 140.624155,58.1910569 140.742029,58.3091463 C140.859903,58.5453252 140.977778,58.6634146 141.095652,58.6634146 C141.213527,58.7815041 141.56715,58.7815041 141.920773,58.7815041 L141.920773,59.1357724 L137.677295,59.1357724 L137.677295,58.7815041 C138.148792,58.7815041 138.384541,58.7815041 138.502415,58.6634146 C138.62029,58.5453252 138.738164,58.4272358 138.856039,58.3091463 C138.973913,58.0729675 138.973913,57.7186992 138.973913,57.2463415 L138.973913,53.821748 C138.973913,52.8770325 138.973913,52.2865854 138.856039,51.9323171 C138.856039,51.6961382 138.738164,51.5780488 138.62029,51.4599593 C138.502415,51.3418699 138.384541,51.3418699 138.266667,51.3418699 C138.030918,51.3418699 137.913043,51.3418699 137.677295,51.4599593 L137.55942,51.1056911 L140.152657,50.0428862 L140.624155,50.0428862 L140.624155,50.279065 L140.624155,50.279065 Z" id="Shape" fill="#FFFFFF"></path>
                            <path d="M146.046377,45.7916667 L146.046377,57.3644309 C146.046377,57.954878 146.046377,58.3091463 146.164251,58.4272358 C146.282126,58.5453252 146.4,58.7815041 146.517874,58.7815041 C146.635749,58.8995935 146.989372,58.8995935 147.46087,58.8995935 L147.46087,59.2538618 L143.217391,59.2538618 L143.217391,58.8995935 C143.571014,58.8995935 143.924638,58.8995935 144.042512,58.7815041 C144.160386,58.6634146 144.278261,58.5453252 144.396135,58.4272358 C144.51401,58.1910569 144.51401,57.8367886 144.51401,57.3644309 L144.51401,49.452439 C144.51401,48.5077236 144.51401,47.9172764 144.396135,47.6810976 C144.396135,47.4449187 144.278261,47.3268293 144.160386,47.2087398 C144.042512,47.0906504 143.924638,47.0906504 143.806763,47.0906504 C143.688889,47.0906504 143.45314,47.0906504 143.217391,47.2087398 L143.099517,46.8544715 L145.692754,45.7916667 L146.046377,45.7916667 L146.046377,45.7916667 L146.046377,45.7916667 Z" id="Shape" fill="#FFFFFF"></path>
                            <path d="M147.932367,50.5152439 L151.940097,50.5152439 L151.940097,50.8695122 L151.704348,50.8695122 C151.468599,50.8695122 151.23285,50.9876016 151.114976,51.1056911 C150.997101,51.2237805 150.879227,51.3418699 150.879227,51.5780488 C150.879227,51.8142276 150.997101,52.1684959 151.23285,52.6408537 L153.354589,57.0101626 L155.358454,52.1684959 C155.476329,51.9323171 155.476329,51.6961382 155.476329,51.3418699 C155.476329,51.2237805 155.476329,51.1056911 155.358454,51.1056911 C155.358454,50.9876016 155.24058,50.9876016 155.122705,50.9876016 C155.004831,50.9876016 154.769082,50.8695122 154.533333,50.8695122 L154.533333,50.5152439 L157.362319,50.5152439 L157.362319,50.8695122 C157.12657,50.8695122 156.890821,50.9876016 156.772947,50.9876016 C156.655072,51.1056911 156.537198,51.2237805 156.301449,51.4599593 C156.301449,51.5780488 156.183575,51.8142276 155.947826,52.1684959 L152.411594,60.9071138 C152.057971,61.7337398 151.586473,62.4422764 151.114976,62.7965447 C150.525604,63.2689024 150.054106,63.3869919 149.464734,63.3869919 C149.111111,63.3869919 148.757488,63.2689024 148.521739,63.0327236 C148.28599,62.7965447 148.168116,62.5603659 148.168116,62.324187 C148.168116,62.0880081 148.28599,61.8518293 148.403865,61.7337398 C148.521739,61.6156504 148.875362,61.497561 149.111111,61.497561 C149.34686,61.497561 149.582609,61.6156504 149.936232,61.7337398 C150.171981,61.8518293 150.289855,61.8518293 150.407729,61.8518293 C150.643478,61.8518293 150.761353,61.7337398 150.997101,61.497561 C151.23285,61.2613821 151.468599,60.9071138 151.704348,60.3166667 L152.29372,58.7815041 L149.111111,52.1684959 C148.993237,51.9323171 148.875362,51.6961382 148.639614,51.4599593 C148.521739,51.2237805 148.403865,51.1056911 148.28599,50.9876016 C148.168116,50.8695122 147.932367,50.7514228 147.578744,50.7514228 L147.578744,50.5152439 L147.932367,50.5152439 L147.932367,50.5152439 Z" id="Shape" fill="#FFFFFF"></path>
                            <path d="M169.267633,58.3091463 C168.796135,58.7815041 168.442512,59.0176829 167.971014,59.2538618 C167.617391,59.4900407 167.145894,59.4900407 166.674396,59.4900407 C165.731401,59.4900407 164.90628,59.1357724 164.199034,58.3091463 C163.491787,57.4825203 163.138164,56.5378049 163.138164,55.2388211 C163.138164,53.9398374 163.491787,52.8770325 164.316908,51.8142276 C165.142029,50.7514228 166.085024,50.279065 167.381643,50.279065 C168.088889,50.279065 168.796135,50.5152439 169.267633,50.9876016 L169.267633,49.3343496 C169.267633,48.3896341 169.267633,47.6810976 169.149758,47.4449187 C169.149758,47.2087398 169.031884,47.0906504 168.91401,46.972561 C168.796135,46.8544715 168.678261,46.8544715 168.560386,46.8544715 C168.442512,46.8544715 168.206763,46.8544715 167.85314,46.972561 L167.735266,46.6182927 L170.328502,45.5554878 L170.8,45.5554878 L170.8,55.5930894 C170.8,56.6558943 170.8,57.2463415 170.917874,57.4825203 C170.917874,57.7186992 171.035749,57.8367886 171.153623,57.954878 C171.271498,58.0729675 171.389372,58.0729675 171.507246,58.0729675 C171.625121,58.0729675 171.86087,58.0729675 172.214493,57.954878 L172.332367,58.3091463 L169.73913,59.3719512 L169.267633,59.3719512 L169.267633,58.3091463 L169.267633,58.3091463 L169.267633,58.3091463 Z M169.267633,57.6006098 L169.267633,53.1132114 C169.267633,52.6408537 169.149758,52.2865854 168.91401,51.9323171 C168.678261,51.5780488 168.442512,51.3418699 168.206763,51.1056911 C167.85314,50.8695122 167.617391,50.8695122 167.263768,50.8695122 C166.674396,50.8695122 166.202899,51.1056911 165.731401,51.5780488 C165.142029,52.2865854 164.90628,53.2313008 164.90628,54.5302846 C164.90628,55.8292683 165.142029,56.7739837 165.731401,57.4825203 C166.320773,58.1910569 166.910145,58.5453252 167.617391,58.5453252 C168.088889,58.5453252 168.678261,58.1910569 169.267633,57.6006098 L169.267633,57.6006098 L169.267633,57.6006098 Z" id="Shape" fill="#FFFFFF"></path>
                            <path d="M174.218357,53.821748 C174.218357,55.1207317 174.571981,56.1835366 175.161353,56.8920732 C175.750725,57.6006098 176.575845,57.954878 177.400966,57.954878 C177.990338,57.954878 178.461836,57.8367886 178.933333,57.4825203 C179.404831,57.128252 179.758454,56.6558943 179.994203,55.8292683 L180.347826,56.0654472 C180.229952,56.8920732 179.876329,57.7186992 179.169082,58.4272358 C178.57971,59.1357724 177.754589,59.4900407 176.811594,59.4900407 C175.750725,59.4900407 174.925604,59.1357724 174.100483,58.3091463 C173.393237,57.4825203 173.039614,56.4197154 173.039614,55.0026423 C173.039614,53.4674797 173.393237,52.4046748 174.218357,51.4599593 C174.925604,50.6333333 175.986473,50.1609756 177.047343,50.1609756 C177.990338,50.1609756 178.815459,50.5152439 179.404831,51.1056911 C179.994203,51.6961382 180.347826,52.6408537 180.347826,53.7036585 L174.218357,53.7036585 L174.218357,53.821748 L174.218357,53.821748 Z M174.218357,53.3493902 L178.226087,53.3493902 C178.226087,52.7589431 178.108213,52.4046748 177.990338,52.1684959 C177.872464,51.8142276 177.636715,51.5780488 177.283092,51.3418699 C176.929469,51.1056911 176.69372,50.9876016 176.340097,50.9876016 C175.868599,50.9876016 175.397101,51.2237805 174.925604,51.5780488 C174.571981,52.0504065 174.336232,52.5227642 174.218357,53.3493902 L174.218357,53.3493902 L174.218357,53.3493902 Z" id="Shape" fill="#FFFFFF"></path>
                            <path d="M184.001932,52.1684959 C185.062802,50.9876016 186.005797,50.279065 186.948792,50.279065 C187.42029,50.279065 187.891787,50.3971545 188.127536,50.6333333 C188.481159,50.8695122 188.716908,51.2237805 188.952657,51.8142276 C189.070531,52.1684959 189.188406,52.7589431 189.188406,53.5855691 L189.188406,57.3644309 C189.188406,57.954878 189.188406,58.3091463 189.30628,58.4272358 C189.424155,58.5453252 189.542029,58.6634146 189.659903,58.7815041 C189.777778,58.8995935 190.131401,58.8995935 190.485024,58.8995935 L190.485024,59.2538618 L186.123671,59.2538618 L186.123671,58.8995935 L186.35942,58.8995935 C186.713043,58.8995935 187.066667,58.7815041 187.184541,58.6634146 C187.302415,58.5453252 187.42029,58.3091463 187.538164,58.0729675 L187.538164,57.128252 L187.538164,53.5855691 C187.538164,52.7589431 187.42029,52.1684959 187.184541,51.8142276 C186.948792,51.4599593 186.595169,51.2237805 186.123671,51.2237805 C185.416425,51.2237805 184.591304,51.5780488 183.884058,52.4046748 L183.884058,57.0101626 C183.884058,57.6006098 183.884058,57.954878 184.001932,58.0729675 C184.119807,58.3091463 184.237681,58.4272358 184.355556,58.4272358 C184.47343,58.5453252 184.827053,58.5453252 185.298551,58.5453252 L185.298551,58.8995935 L180.937198,58.8995935 L180.937198,58.5453252 L181.172947,58.5453252 C181.644444,58.5453252 181.880193,58.4272358 182.115942,58.1910569 C182.233816,57.954878 182.351691,57.4825203 182.351691,56.8920732 L182.351691,53.7036585 C182.351691,52.6408537 182.351691,52.0504065 182.233816,51.8142276 C182.233816,51.5780488 182.115942,51.4599593 181.998068,51.3418699 C181.880193,51.2237805 181.762319,51.2237805 181.644444,51.2237805 C181.52657,51.2237805 181.290821,51.2237805 181.055072,51.3418699 L180.937198,50.9876016 L183.530435,49.9247967 L183.884058,49.9247967 L183.884058,52.1684959 L184.001932,52.1684959 L184.001932,52.1684959 Z" id="Shape" fill="#FFFFFF"></path>
                            <path d="M193.667633,47.6810976 L193.667633,50.5152439 L195.671498,50.5152439 L195.671498,51.2237805 L193.667633,51.2237805 L193.667633,56.8920732 C193.667633,57.4825203 193.785507,57.8367886 193.903382,58.0729675 C194.021256,58.3091463 194.257005,58.4272358 194.492754,58.4272358 C194.728502,58.4272358 194.846377,58.3091463 195.082126,58.1910569 C195.317874,58.0729675 195.435749,57.8367886 195.553623,57.6006098 L195.907246,57.6006098 C195.671498,58.1910569 195.317874,58.6634146 194.964251,59.0176829 C194.610628,59.3719512 194.13913,59.4900407 193.667633,59.4900407 C193.431884,59.4900407 193.078261,59.3719512 192.842512,59.2538618 C192.606763,59.1357724 192.371014,58.8995935 192.25314,58.5453252 C192.135266,58.1910569 192.017391,57.8367886 192.017391,57.128252 L192.017391,51.2237805 L190.602899,51.2237805 L190.602899,50.8695122 C190.956522,50.7514228 191.310145,50.5152439 191.663768,50.1609756 C192.017391,49.8067073 192.371014,49.452439 192.606763,48.9800813 C192.724638,48.7439024 192.960386,48.2715447 193.196135,47.6810976 L193.667633,47.6810976 L193.667633,47.6810976 L193.667633,47.6810976 Z" id="Shape" fill="#FFFFFF"></path>
                            <path d="M198.854106,45.7916667 C199.089855,45.7916667 199.325604,45.9097561 199.561353,46.0278455 C199.797101,46.2640244 199.797101,46.5002033 199.797101,46.7363821 C199.797101,46.972561 199.679227,47.2087398 199.561353,47.4449187 C199.325604,47.6810976 199.089855,47.6810976 198.854106,47.6810976 C198.618357,47.6810976 198.382609,47.5630081 198.14686,47.4449187 C197.911111,47.2087398 197.911111,46.972561 197.911111,46.7363821 C197.911111,46.5002033 198.028986,46.2640244 198.14686,46.0278455 C198.264734,45.7916667 198.500483,45.7916667 198.854106,45.7916667 L198.854106,45.7916667 L198.854106,45.7916667 Z M199.561353,50.279065 L199.561353,57.2463415 C199.561353,57.8367886 199.561353,58.1910569 199.679227,58.3091463 C199.797101,58.5453252 199.914976,58.6634146 200.03285,58.6634146 C200.150725,58.7815041 200.504348,58.7815041 200.857971,58.7815041 L200.857971,59.1357724 L196.614493,59.1357724 L196.614493,58.7815041 C197.08599,58.7815041 197.321739,58.7815041 197.439614,58.6634146 C197.557488,58.5453252 197.675362,58.4272358 197.793237,58.3091463 C197.911111,58.0729675 197.911111,57.7186992 197.911111,57.2463415 L197.911111,53.821748 C197.911111,52.8770325 197.911111,52.2865854 197.793237,51.9323171 C197.793237,51.6961382 197.675362,51.5780488 197.557488,51.4599593 C197.439614,51.3418699 197.321739,51.3418699 197.203865,51.3418699 C196.968116,51.3418699 196.850242,51.3418699 196.614493,51.4599593 L196.496618,51.1056911 L199.089855,50.0428862 L199.561353,50.0428862 L199.561353,50.279065 L199.561353,50.279065 Z" id="Shape" fill="#FFFFFF"></path>
                            <path d="M207.576812,50.279065 L207.576812,53.2313008 L207.223188,53.2313008 C206.98744,52.2865854 206.633816,51.6961382 206.280193,51.3418699 C205.92657,50.9876016 205.455072,50.8695122 204.8657,50.8695122 C204.394203,50.8695122 204.04058,50.9876016 203.804831,51.2237805 C203.569082,51.4599593 203.451208,51.6961382 203.451208,52.0504065 C203.451208,52.4046748 203.569082,52.7589431 203.804831,52.995122 C204.04058,53.2313008 204.394203,53.5855691 204.983575,53.821748 L206.398068,54.5302846 C207.694686,55.1207317 208.284058,55.9473577 208.284058,57.0101626 C208.284058,57.8367886 207.930435,58.4272358 207.341063,58.8995935 C206.751691,59.3719512 206.044444,59.6081301 205.337198,59.6081301 C204.747826,59.6081301 204.158454,59.4900407 203.451208,59.3719512 C203.215459,59.2538618 203.097585,59.2538618 202.97971,59.2538618 C202.861836,59.2538618 202.743961,59.3719512 202.626087,59.4900407 L202.272464,59.4900407 L202.272464,56.4197154 L202.626087,56.4197154 C202.861836,57.3644309 203.097585,57.954878 203.686957,58.4272358 C204.158454,58.8995935 204.747826,59.1357724 205.337198,59.1357724 C205.808696,59.1357724 206.162319,59.0176829 206.398068,58.7815041 C206.633816,58.5453252 206.751691,58.1910569 206.751691,57.8367886 C206.751691,57.3644309 206.633816,57.0101626 206.280193,56.7739837 C205.92657,56.4197154 205.337198,56.0654472 204.394203,55.5930894 C203.451208,55.1207317 202.861836,54.7664634 202.626087,54.4121951 C202.390338,54.0579268 202.154589,53.5855691 202.154589,52.995122 C202.154589,52.2865854 202.390338,51.6961382 202.861836,51.2237805 C203.333333,50.7514228 204.04058,50.5152439 204.747826,50.5152439 C205.101449,50.5152439 205.455072,50.6333333 206.044444,50.7514228 C206.398068,50.8695122 206.633816,50.8695122 206.633816,50.8695122 C206.751691,50.8695122 206.869565,50.8695122 206.869565,50.7514228 C206.869565,50.7514228 206.98744,50.6333333 207.105314,50.3971545 L207.576812,50.3971545 L207.576812,50.279065 L207.576812,50.279065 Z" id="Shape" fill="#FFFFFF"></path>
                            <path d="M212.056039,47.6810976 L212.056039,50.5152439 L214.059903,50.5152439 L214.059903,51.2237805 L212.056039,51.2237805 L212.056039,56.8920732 C212.056039,57.4825203 212.173913,57.8367886 212.291787,58.0729675 C212.409662,58.3091463 212.645411,58.4272358 212.881159,58.4272358 C213.116908,58.4272358 213.234783,58.3091463 213.470531,58.1910569 C213.70628,58.0729675 213.824155,57.8367886 213.942029,57.6006098 L214.295652,57.6006098 C214.059903,58.1910569 213.70628,58.6634146 213.352657,59.0176829 C212.999034,59.3719512 212.527536,59.4900407 212.056039,59.4900407 C211.82029,59.4900407 211.466667,59.3719512 211.230918,59.2538618 C210.995169,59.1357724 210.75942,58.8995935 210.641546,58.5453252 C210.523671,58.1910569 210.405797,57.8367886 210.405797,57.128252 L210.405797,51.2237805 L208.991304,51.2237805 L208.991304,50.8695122 C209.344928,50.7514228 209.698551,50.5152439 210.052174,50.1609756 C210.405797,49.8067073 210.75942,49.452439 210.995169,48.9800813 C211.113043,48.7439024 211.348792,48.2715447 211.584541,47.6810976 L212.056039,47.6810976 L212.056039,47.6810976 L212.056039,47.6810976 Z" id="Shape" fill="#FFFFFF"></path>
                            <path d="M217.596135,50.279065 L217.596135,52.2865854 C218.303382,50.9876016 219.128502,50.279065 219.835749,50.279065 C220.189372,50.279065 220.425121,50.3971545 220.66087,50.6333333 C220.896618,50.8695122 221.014493,51.1056911 221.014493,51.3418699 C221.014493,51.5780488 220.896618,51.8142276 220.778744,51.9323171 C220.66087,52.0504065 220.425121,52.1684959 220.189372,52.1684959 C219.953623,52.1684959 219.717874,52.0504065 219.482126,51.8142276 C219.246377,51.5780488 219.010628,51.4599593 218.892754,51.4599593 C218.774879,51.4599593 218.657005,51.5780488 218.53913,51.6961382 C218.303382,51.9323171 217.949758,52.4046748 217.71401,52.995122 L217.71401,57.128252 C217.71401,57.6006098 217.71401,57.954878 217.949758,58.1910569 C218.067633,58.3091463 218.185507,58.5453252 218.421256,58.6634146 C218.657005,58.7815041 218.892754,58.7815041 219.364251,58.7815041 L219.364251,59.1357724 L214.885024,59.1357724 L214.885024,58.7815041 C215.356522,58.7815041 215.710145,58.6634146 215.828019,58.5453252 C215.945894,58.4272358 216.063768,58.3091463 216.181643,58.0729675 L216.181643,57.128252 L216.181643,53.7036585 C216.181643,52.6408537 216.181643,52.0504065 216.063768,51.9323171 C216.063768,51.6961382 215.945894,51.5780488 215.828019,51.4599593 C215.710145,51.3418699 215.592271,51.3418699 215.356522,51.3418699 C215.120773,51.3418699 214.885024,51.3418699 214.649275,51.4599593 L214.531401,51.1056911 L217.124638,50.0428862 L217.596135,50.0428862 L217.596135,50.279065 L217.596135,50.279065 Z" id="Shape" fill="#FFFFFF"></path>
                            <path d="M221.014493,50.5152439 L225.022222,50.5152439 L225.022222,50.8695122 L224.786473,50.8695122 C224.550725,50.8695122 224.314976,50.9876016 224.197101,51.1056911 C224.079227,51.2237805 223.961353,51.3418699 223.961353,51.5780488 C223.961353,51.8142276 224.079227,52.1684959 224.314976,52.6408537 L226.436715,57.0101626 L228.44058,52.1684959 C228.558454,51.9323171 228.558454,51.6961382 228.558454,51.3418699 C228.558454,51.2237805 228.558454,51.1056911 228.44058,51.1056911 C228.44058,50.9876016 228.322705,50.9876016 228.204831,50.9876016 C228.086957,50.9876016 227.851208,50.8695122 227.615459,50.8695122 L227.615459,50.5152439 L230.444444,50.5152439 L230.444444,50.8695122 C230.208696,50.8695122 229.972947,50.9876016 229.855072,50.9876016 C229.737198,51.1056911 229.619324,51.2237805 229.383575,51.4599593 C229.383575,51.5780488 229.2657,51.8142276 229.029952,52.1684959 L225.49372,60.9071138 C225.140097,61.7337398 224.668599,62.4422764 224.197101,62.7965447 C223.607729,63.2689024 223.136232,63.3869919 222.54686,63.3869919 C222.193237,63.3869919 221.839614,63.2689024 221.603865,63.0327236 C221.368116,62.7965447 221.250242,62.5603659 221.250242,62.324187 C221.250242,62.0880081 221.368116,61.8518293 221.48599,61.7337398 C221.603865,61.6156504 221.957488,61.497561 222.193237,61.497561 C222.428986,61.497561 222.664734,61.6156504 223.018357,61.7337398 C223.254106,61.8518293 223.371981,61.8518293 223.489855,61.8518293 C223.725604,61.8518293 223.843478,61.7337398 224.079227,61.497561 C224.314976,61.2613821 224.550725,60.9071138 224.786473,60.3166667 L225.375845,58.7815041 L222.193237,52.1684959 C222.075362,51.9323171 221.957488,51.6961382 221.721739,51.4599593 C221.603865,51.2237805 221.48599,51.1056911 221.368116,50.9876016 C221.250242,50.8695122 221.014493,50.7514228 220.66087,50.7514228 L220.66087,50.5152439 L221.014493,50.5152439 L221.014493,50.5152439 Z" id="Shape" fill="#FFFFFF"></path>
                        </g>
                    </g>
                </g>
            </g>
        </g>
    </g>
</svg>